<?xml version="1.0" encoding="UTF-8"?>
<svg version="1.1" xmlns="http://www.w3.org/2000/svg" width="500" height="500">
<path d="M0 0 C1.48781877 -0.00445527 2.97563517 -0.00977027 4.46344811 -0.01586872 C8.54413093 -0.03002511 12.6247375 -0.03171246 16.70544136 -0.03127182 C21.10990777 -0.03292216 25.51434297 -0.04599296 29.91879272 -0.0574646 C39.54724418 -0.08029926 49.17567357 -0.08823393 58.80414844 -0.09329104 C64.82076072 -0.0965506 70.83736662 -0.10307474 76.8539753 -0.11029243 C93.52455025 -0.12985829 110.19511927 -0.14626194 126.86570644 -0.14916897 C127.93221088 -0.14935654 128.99871531 -0.14954411 130.09753806 -0.14973736 C132.25946144 -0.1501036 134.42138483 -0.1504673 136.58330821 -0.15082847 C137.65643921 -0.15101128 138.72957021 -0.1511941 139.83522034 -0.15138245 C141.44689094 -0.15165327 141.44689094 -0.15165327 143.09112055 -0.15192956 C160.48781135 -0.15546863 177.88437817 -0.18247439 195.281026 -0.21988034 C213.15812767 -0.2580104 231.03516791 -0.2773268 248.91231114 -0.27762848 C258.94304153 -0.27821208 268.97362411 -0.2866408 279.00431633 -0.31562614 C287.54860259 -0.3402032 296.09268715 -0.34738053 304.63699924 -0.33237862 C308.99147565 -0.32523488 313.3455543 -0.32595666 317.6999855 -0.34878922 C321.69707534 -0.3695459 325.69346586 -0.36662559 329.6905495 -0.34591437 C331.12601783 -0.34245099 332.56153837 -0.3471935 333.9969384 -0.36161881 C353.88420564 -0.54837743 371.70038134 7.0875088 386.52296448 20.27415466 C387.0111969 20.70792419 387.49942932 21.14169373 388.00245667 21.58860779 C400.49791965 32.87630262 409.55895669 46.05839589 414.52296448 62.27415466 C414.86664598 63.36435724 415.21032747 64.45455982 415.56442356 65.57779884 C417.08759347 71.78659946 416.80947609 78.1257439 416.79711914 84.47834778 C416.80157601 85.92435629 416.80689153 87.37036236 416.81298786 88.81636488 C416.82712518 92.77691199 416.82883197 96.73738045 416.82839096 100.69794917 C416.830043 104.97496448 416.84311699 109.25194776 416.85458374 113.52894592 C416.87740567 122.87648967 416.88535176 132.22401067 416.89041018 141.5715785 C416.89367135 147.4145043 416.90019649 153.25742353 416.90741158 159.10034561 C416.92697612 175.29485804 416.94338042 191.48936438 416.94628811 207.68388939 C416.94647568 208.71967946 416.94666325 209.75546954 416.9468565 210.82264719 C416.94722274 212.92224288 416.94758644 215.02183857 416.94794761 217.12143426 C416.94813042 218.16360445 416.94831324 219.20577465 416.94850159 220.27952576 C416.94877241 221.84470196 416.94877241 221.84470196 416.94904871 223.44149788 C416.95258699 240.3323866 416.97958843 257.22314757 417.01699948 274.11399202 C417.05514911 291.47810957 417.07444609 308.84216386 417.07474762 326.20632422 C417.0753308 335.94647034 417.08373192 345.68646415 417.11274529 355.42657089 C417.13734868 363.72410829 417.14448213 372.02143787 417.12949776 380.31900196 C417.12236456 384.54614582 417.12302936 388.77288007 417.14590836 392.99997711 C417.29542017 422.40903664 413.26015923 446.40031427 393.52296448 469.27415466 C392.3106012 470.69147888 392.3106012 470.69147888 391.07374573 472.13743591 C377.55757451 486.77133032 355.8761176 498.56004266 335.98995888 500.6444788 C332.2688077 500.78449507 328.56649359 500.80781863 324.84280396 500.78208923 C323.418349 500.78671081 321.99389883 500.79307209 320.56945843 500.80099821 C316.69637272 500.81754269 312.82368629 500.80951393 308.95060003 500.79705334 C304.75758316 500.78794338 300.56463142 500.80200188 296.37162781 500.81297302 C288.17351839 500.83070028 279.975556 500.82694407 271.77744097 500.81532246 C265.11027129 500.80626489 258.44314263 500.80507416 251.77596855 500.80941772 C250.34906066 500.81033712 250.34906066 500.81033712 248.89332635 500.81127509 C246.96042879 500.81255408 245.02753123 500.81385094 243.09463369 500.81516546 C224.9964732 500.82655445 206.89839393 500.8134843 188.80024677 500.79196399 C173.2952624 500.77409744 157.79039786 500.77719675 142.28541565 500.79563904 C124.25068264 500.81708048 106.21602072 500.82545294 88.18127674 500.81318998 C86.25544323 500.81191588 84.3296097 500.8106584 82.40377617 500.80941772 C80.98270987 500.80849207 80.98270987 500.80849207 79.53293516 500.80754772 C72.87980433 500.80410442 66.22671885 500.80990116 59.57359505 500.81933594 C51.45691346 500.83059388 43.34038645 500.82743661 35.22372241 500.80621296 C31.08811121 500.79575292 26.95275708 500.79149367 22.81714821 500.80480957 C19.02152584 500.81684525 15.22639556 500.80999006 11.430817 500.78889936 C9.42842362 500.78240795 7.42599529 500.79526876 5.42363936 500.80912828 C-6.58657018 500.70669327 -18.13656749 498.17833627 -28.78953552 492.46165466 C-29.7875116 491.94236389 -29.7875116 491.94236389 -30.8056488 491.4125824 C-54.98363666 478.57224532 -73.55682241 457.02326571 -81.62065029 430.79463005 C-83.71993367 423.22727117 -84.04231057 416.06503498 -83.99169922 408.25904846 C-83.99703834 406.79818235 -84.00411181 405.33732175 -84.01274627 403.8764714 C-84.03121999 399.90271442 -84.02512203 395.929334 -84.01459324 391.95556235 C-84.00755736 387.65413492 -84.02363226 383.35278148 -84.03659058 379.05137634 C-84.05816313 370.64037882 -84.058121 362.22951695 -84.04996503 353.81850089 C-84.04364896 346.97780707 -84.04481676 340.13715262 -84.05123711 333.2964592 C-84.05213876 332.32049774 -84.05304042 331.34453629 -84.05396939 330.33900025 C-84.05582072 328.35593541 -84.05768328 326.37287059 -84.05955695 324.38980578 C-84.07611208 305.81997242 -84.06743587 287.25021518 -84.05057137 268.68038641 C-84.03587817 251.71738688 -84.05050156 234.75456455 -84.07934154 217.79158784 C-84.10878348 200.3436566 -84.11969374 182.895807 -84.11015934 165.44785202 C-84.10913686 163.47172858 -84.10814225 161.49560513 -84.10717583 159.51948166 C-84.10669944 158.54736785 -84.10622305 157.57525403 -84.10573222 156.57368223 C-84.10357433 149.74818265 -84.11333882 142.92276092 -84.12794685 136.09727859 C-84.1455235 127.76906955 -84.14527671 119.44108623 -84.1225952 111.11288585 C-84.11150096 106.86975986 -84.10818005 102.62703078 -84.1268959 98.38392258 C-84.14385449 94.48885887 -84.13714534 90.59453348 -84.11267912 86.69951628 C-84.10784526 85.30127753 -84.11117407 83.90297743 -84.12416656 82.50479068 C-84.3269201 58.95962451 -73.0761392 40.13160106 -57.16453552 23.52415466 C-46.64436164 13.40124608 -35.20847594 6.91838303 -21.47703552 2.27415466 C-20.57630279 1.93481872 -19.67557005 1.59548277 -18.74754238 1.24586391 C-12.66355835 -0.46232018 -6.26499794 -0.01180353 0 0 Z " fill="#299193" transform="translate(83.47703552246094,-0.2741546630859375)"/>
<path d="M0 0 C0.75249023 0.22993652 1.50498047 0.45987305 2.28027344 0.69677734 C27.09725749 8.54863549 47.35491622 25.37925879 64 45 C64.64066406 45.74378906 65.28132812 46.48757812 65.94140625 47.25390625 C84.61441057 70.75548543 91.59125464 104.69876545 88.6875 134.171875 C87.51624992 141.91049161 85.46696693 149.48597728 83.50244141 157.0546875 C82.7334692 160.03193267 81.99246787 163.01605331 81.25 166 C80.83333333 167.66666667 80.41666667 169.33333333 80 171 C79.34 171 78.68 171 78 171 C77.83177734 172.01126953 77.83177734 172.01126953 77.66015625 173.04296875 C76.87079499 176.57874672 75.68500151 179.91943566 74.4375 183.3125 C74.20353516 183.95767578 73.96957031 184.60285156 73.72851562 185.26757812 C73.15552993 186.84621219 72.57820536 188.42327026 72 190 C71.34 190 70.68 190 70 190 C69.86722656 190.73605469 69.73445312 191.47210938 69.59765625 192.23046875 C65.18821792 212.66374831 50.71078926 233.4637061 39.44140625 250.734375 C38.03284187 252.94837863 36.75319482 255.19508863 35.5 257.5 C31.08715984 265.58306644 25.89411302 273.20248534 20.8125 280.875 C20.39653564 281.5055127 19.98057129 282.13602539 19.55200195 282.78564453 C17.18705271 286.33614468 14.67469901 289.67251268 12 293 C11.07235465 294.65650956 10.14527667 296.31334272 9.22265625 297.97265625 C7.8330317 300.27685798 6.28949303 302.39998242 4.6875 304.5625 C-0.25711618 311.24844053 -4.89314163 318.13923411 -9.54418945 325.03149414 C-12.81235701 329.85800455 -16.14015233 334.60669408 -19.66894531 339.24633789 C-21.51150296 341.67390422 -23.28461754 344.14983715 -25.0625 346.625 C-32.94029444 357.47014722 -32.94029444 357.47014722 -36 359 C-43.30434783 359.23188406 -43.30434783 359.23188406 -47 358 C-48.74219489 355.67806958 -50.35149425 353.36262492 -51.9375 350.9375 C-55.82910997 345.12656971 -59.83383211 339.44564707 -64.0625 333.875 C-73.218323 321.76098495 -81.82613671 309.36751874 -90.20410156 296.70117188 C-93.88435584 291.14144414 -97.62247148 285.63877033 -101.49926758 280.21386719 C-102.97672468 278.03433555 -104.25819781 275.82047147 -105.5 273.5 C-107.29210681 270.15158991 -109.28871276 267.088177 -111.5 264 C-114.175815 260.253859 -116.4791414 256.47479257 -118.65234375 252.421875 C-120.17120243 249.69233186 -121.82814987 247.07616116 -123.5 244.4375 C-135.46785571 225.13450692 -145.76070037 204.72053569 -154.4375 183.75 C-154.72431641 183.06292969 -155.01113281 182.37585938 -155.30664062 181.66796875 C-159.3361863 171.92167341 -162.66378705 162.18311906 -165.1875 151.9375 C-165.44724609 150.92623047 -165.70699219 149.91496094 -165.97460938 148.87304688 C-173.20896283 119.84216596 -168.70953989 85.49467194 -153.5546875 59.54296875 C-153.04164063 58.70378906 -152.52859375 57.86460937 -152 57 C-151.46632812 56.08863281 -150.93265625 55.17726562 -150.3828125 54.23828125 C-146.81095986 48.33731732 -142.79424621 43.26720642 -138.078125 38.23828125 C-136.31788533 36.34238401 -134.71110701 34.41496293 -133.125 32.375 C-132.42375 31.59125 -131.7225 30.8075 -131 30 C-130.01 30 -129.02 30 -128 30 C-127.79117188 29.43925781 -127.58234375 28.87851563 -127.3671875 28.30078125 C-125.52146789 25.19469883 -122.97361412 23.31643385 -120.125 21.1875 C-119.54854736 20.75099121 -118.97209473 20.31448242 -118.37817383 19.86474609 C-112.85637925 15.75939547 -107.05560777 12.26476245 -101 9 C-100.31679687 8.62359375 -99.63359375 8.2471875 -98.9296875 7.859375 C-69.33349592 -7.74363814 -31.82052093 -9.85044733 0 0 Z " fill="#F8C627" transform="translate(290,73)"/>
<path d="M0 0 C15.92919947 13.16846398 28.0410584 30.05624145 31 51 C31.65268685 60.92837113 31.95931449 71.41745785 29 81 C28.70480469 82.03640625 28.40960938 83.0728125 28.10546875 84.140625 C25.82459335 91.32981532 22.78299399 97.48774551 18.8125 103.875 C18.37228516 104.58350098 17.93207031 105.29200195 17.47851562 106.02197266 C16.38084717 107.72285292 15.19756843 109.36791559 14 111 C13.34 111 12.68 111 12 111 C11.773125 111.53625 11.54625 112.0725 11.3125 112.625 C8.25135023 118.16422339 3.93087721 122.01750663 -0.8125 126.078125 C-11.57981693 135.53798202 -18.00097981 143.75129216 -19.30078125 158.38671875 C-19.36652344 159.49660156 -19.43226563 160.60648438 -19.5 161.75 C-20.21762692 172.52721854 -23.88926501 178.67834768 -32 186 C-38.37803783 190.48186442 -45.40453228 191.00260174 -53 190 C-60.78041289 187.77532537 -66.7544049 183.49002995 -70.8125 176.4375 C-77.8648005 163.26864113 -74.03638194 145.64425022 -70 132 C-65.0256361 116.16903962 -54.43233715 103.64284761 -43 92 C-41.97519531 90.93458984 -41.97519531 90.93458984 -40.9296875 89.84765625 C-38.18376788 87.03401215 -35.3701825 84.47065907 -32.3125 82 C-27.04084482 77.56944037 -24.35856563 72.11468752 -23.76171875 65.265625 C-23.54965775 56.6492518 -24.99067674 51.17775268 -30.6875 44.6875 C-35.95019165 39.83471649 -42.79845512 38.43377307 -49.80078125 38.71484375 C-56.33249471 39.56176219 -60.73630349 41.9072514 -65 47 C-68.9211797 52.44608292 -70.03316986 55.85645478 -70.1875 62.5 C-70.74489275 70.92185615 -73.49780496 78.17181682 -79.875 83.9375 C-80.90625 84.618125 -81.9375 85.29875 -83 86 C-83.82371094 86.58394531 -83.82371094 86.58394531 -84.6640625 87.1796875 C-91.53253599 91.41768178 -99.98420842 91.18018625 -107.65625 89.375 C-114.78188314 86.64188044 -119.09054863 81.24606732 -122.875 74.8125 C-128.01240883 61.96897792 -125.13538684 46.39323237 -120.17041016 33.91503906 C-116.12395302 24.50620378 -110.9863729 16.54124728 -104 9 C-103.36835938 8.31164062 -102.73671875 7.62328125 -102.0859375 6.9140625 C-98.68446183 3.36274209 -95.25590726 0.47436469 -91 -2 C-90.34 -2 -89.68 -2 -89 -2 C-89 -2.66 -89 -3.32 -89 -4 C-60.32067315 -19.49935379 -26.87311371 -20.06585146 0 0 Z " fill="#299090" transform="translate(297,122)"/>
<path d="M0 0 C8.01353017 -0.44045999 15.67933355 1.97549046 22.015625 6.94140625 C26.43134953 11.10298836 29.70989849 17.26837762 30.28125 23.35546875 C30.46213949 32.85216719 28.51102205 39.49985025 21.90234375 46.46875 C15.70418081 52.32183321 8.94627108 54.67296911 0.5 54.52734375 C-3.93100238 53.91272084 -7.89525358 52.07441919 -11.921875 50.19140625 C-11.921875 49.53140625 -11.921875 48.87140625 -11.921875 48.19140625 C-12.47875 47.98515625 -13.035625 47.77890625 -13.609375 47.56640625 C-19.0708959 44.31901544 -21.67255906 39.54551292 -23.41796875 33.62109375 C-25.21960171 24.93415035 -23.57588272 19.15324678 -19.484375 11.50390625 C-15.7622373 5.99514245 -10.91918794 2.4537156 -4.546875 0.44140625 C-3.03098414 0.29703569 -1.51525388 0.15090943 0 0 Z " fill="#29908E" transform="translate(246.921875,317.80859375)"/>
<path d="M0 0 C0.5775 0.226875 1.155 0.45375 1.75 0.6875 C2.11769068 4.54825209 2.05185459 6.24932398 -0.1875 9.5 C-2.2712 12.72026363 -2.45165632 13.47239645 -2.5625 17.0625 C-2.98322357 22.89392435 -6.23455603 25.74390294 -10.25 29.6875 C-10.84683594 30.36554688 -11.44367188 31.04359375 -12.05859375 31.7421875 C-16.36713043 36.52092084 -16.36713043 36.52092084 -20.5625 37.3125 C-23.25 36.6875 -23.25 36.6875 -25.25 33.6875 C-25.12062564 28.54948984 -21.87804326 24.56729186 -19.125 20.4375 C-18.62798584 19.68259277 -18.13097168 18.92768555 -17.61889648 18.14990234 C-5.09524116 -0.70767238 -5.09524116 -0.70767238 0 0 Z " fill="#0D9295" transform="translate(482.25,442.3125)"/>
<path d="M0 0 C0 0.66 0 1.32 0 2 C0.69480469 1.93039063 1.38960938 1.86078125 2.10546875 1.7890625 C5.87063971 2.06344743 8.08620538 3.44473826 11.3125 5.375 C12.91544922 6.31472656 12.91544922 6.31472656 14.55078125 7.2734375 C15.76314453 8.12808594 15.76314453 8.12808594 17 9 C17 9.66 17 10.32 17 11 C11.44495095 9.35873551 11.44495095 9.35873551 9.24609375 7.5859375 C6.31557679 5.5167377 3.19552859 4.51530911 -0.1875 3.4375 C-1.43917969 3.02371094 -2.69085938 2.60992187 -3.98046875 2.18359375 C-21.46993348 -3.1080794 -42.88845406 -4.01456514 -59.36450195 4.71459961 C-61.0337849 5.63709199 -62.67801437 6.60449993 -64.3203125 7.57421875 C-67 9 -67 9 -70 9 C-70 9.66 -70 10.32 -70 11 C-71.6875 12.2265625 -71.6875 12.2265625 -74 13.625 C-81.84463415 18.71540523 -87.26252901 25.00816665 -92.45703125 32.72265625 C-94.17638232 35.26033138 -96.03804371 37.64565246 -98 40 C-97.07338508 33.51369553 -93.74975244 29.52212763 -89.375 24.8125 C-86.33478018 21.65084065 -86.33478018 21.65084065 -84 18 C-83.34 18 -82.68 18 -82 18 C-82 17.34 -82 16.68 -82 16 C-81.34 16 -80.68 16 -80 16 C-80 15.34 -80 14.68 -80 14 C-78.04402816 12.60287726 -76.0340906 11.28072371 -74 10 C-72.948125 9.2575 -71.89625 8.515 -70.8125 7.75 C-68 6 -68 6 -65 6 C-65 5.01 -65 4.02 -65 3 C-64.195625 2.71125 -63.39125 2.4225 -62.5625 2.125 C-59.8673532 1.26737432 -59.8673532 1.26737432 -59 -1 C-56.36 -0.67 -53.72 -0.34 -51 0 C-51 -0.66 -51 -1.32 -51 -2 C-37.09430168 -8.95284916 -14.14814971 -3.91257473 0 0 Z " fill="#C9CA5D" transform="translate(278,109)"/>
<path d="M0 0 C2.57509979 2.14744929 4.83247019 4.44489864 7 7 C6.67 7.66 6.34 8.32 6 9 C5.4225 8.649375 4.845 8.29875 4.25 7.9375 C1.64198224 6.85082593 0.60582371 7.06934867 -2 8 C-2.495 4.535 -2.495 4.535 -3 1 C-9.07909346 -2.24218318 -16.19094087 -1.72131054 -22.6875 0 C-28.30948684 2.06705378 -32.35082216 6.70164431 -35 12 C-35.14925907 13.51081944 -35.25000793 15.02660916 -35.32421875 16.54296875 C-35.38416016 17.45240234 -35.44410156 18.36183594 -35.50585938 19.29882812 C-35.62565839 21.20401898 -35.72762723 23.11042623 -35.81054688 25.01757812 C-36.30585665 31.85092946 -38.02842043 35.34235666 -43 40 C-43.47107178 40.50418457 -43.94214355 41.00836914 -44.42749023 41.52783203 C-45.56368556 42.73890676 -46.77587086 43.87788162 -48 45 C-48.66 45 -49.32 45 -50 45 C-50 45.66 -50 46.32 -50 47 C-55.00199488 48.99762712 -59.26881919 49.30547962 -64.5625 49.25 C-65.30435547 49.25773437 -66.04621094 49.26546875 -66.81054688 49.2734375 C-70.99053418 49.25854885 -74.18209028 48.90517475 -78 47 C-75 46 -75 46 -72 47 C-63.53504521 47.65611467 -57.28029732 47.48018297 -50 43 C-49.34 43 -48.68 43 -48 43 C-47.34 41.68 -46.68 40.36 -46 39 C-45.34 39 -44.68 39 -44 39 C-43.731875 38.29875 -43.46375 37.5975 -43.1875 36.875 C-42 34 -42 34 -40.453125 31.25 C-38.83657471 27.63448967 -38.63706045 25.06354613 -38.5625 21.125 C-38.14873861 13.42579293 -36.60608506 8.86033726 -31.4375 3.1875 C-30.2309375 2.1046875 -30.2309375 2.1046875 -29 1 C-28.319375 0.1646875 -28.319375 0.1646875 -27.625 -0.6875 C-19.82436393 -6.98801375 -7.92888849 -4.52520445 0 0 Z " fill="#C7C75C" transform="translate(264,164)"/>
<path d="M0 0 C0.99 0.33 1.98 0.66 3 1 C4.28125 3.80078125 4.28125 3.80078125 5.5 7.3125 C6.94539968 11.44949333 8.36668593 14.53191778 11 18 C11.1875 21.25 11.1875 21.25 11 24 C11.66 24 12.32 24 13 24 C13 25.98 13 27.96 13 30 C13.66 30 14.32 30 15 30 C18.02003942 49.9836651 20.03829289 70.85724345 17 91 C16.67 91.33 16.34 91.66 16 92 C15.40984899 95.36047773 14.85289704 98.72026484 14.36914062 102.09765625 C13.79960156 105.51489061 13.44668862 107.57402977 10.89453125 110.0078125 C10.26933594 110.33523437 9.64414062 110.66265625 9 111 C9.5814377 105.60521726 10.53034132 100.49433216 11.9375 95.25 C19.83743072 64.36098516 15.66201212 34.33908921 1.76855469 5.80493164 C0.95520299 3.89479532 0.45182748 2.02346197 0 0 Z " fill="#3F8C66" transform="translate(362,129)"/>
<path d="M0 0 C2 1 2 1 3.10620117 3.10058594 C4.78747732 8.55451533 4.33225427 14.3187919 4.31567383 19.98193359 C4.31252891 22.22934163 4.3359425 24.4754121 4.36132812 26.72265625 C4.39332864 34.3254728 4.04236571 40.90382245 1 48 C1.66 48 2.32 48 3 48 C2.875 51.25 2.875 51.25 2 55 C-2.82051282 59 -2.82051282 59 -6 59 C-6.1546875 59.9590625 -6.1546875 59.9590625 -6.3125 60.9375 C-6.539375 61.618125 -6.76625 62.29875 -7 63 C-8.485 63.495 -8.485 63.495 -10 64 C-10.37125 65.051875 -10.37125 65.051875 -10.75 66.125 C-12.56776306 70.30585503 -15.69446635 72.93310113 -19 76 C-19.66 75.67 -20.32 75.34 -21 75 C-16.41439206 69.39536807 -16.41439206 69.39536807 -14.04296875 67.1328125 C-6.72242488 59.49033266 -3.02782783 48.93506007 0 39 C0.2475 38.2059375 0.495 37.411875 0.75 36.59375 C2.22201317 30.78747585 2.19947063 24.89344629 2.25 18.9375 C2.25942627 18.09815918 2.26885254 17.25881836 2.27856445 16.39404297 C2.24897696 10.6964972 1.45741655 5.50515032 0 0 Z " fill="#EFC936" transform="translate(325,164)"/>
<path d="M0 0 C1.88138672 0.0009668 1.88138672 0.0009668 3.80078125 0.00195312 C10.75865036 0.0347389 17.59494283 0.31431975 24.5 1.1875 C24.995 2.6725 24.995 2.6725 25.5 4.1875 C26.27085937 4.30867188 27.04171875 4.42984375 27.8359375 4.5546875 C29.34027344 4.80605469 29.34027344 4.80605469 30.875 5.0625 C31.87273437 5.22492188 32.87046875 5.38734375 33.8984375 5.5546875 C36.5 6.1875 36.5 6.1875 38.5 8.1875 C33.14762953 7.83711909 28.19252251 7.13546006 23.03125 5.65625 C13.20423183 3.33740567 3.22409056 3.86838615 -6.8125 4 C-8.82485974 4.01507932 -10.83723045 4.02876196 -12.84960938 4.04101562 C-17.73334849 4.07375173 -22.61655023 4.12535338 -27.5 4.1875 C-19.58380266 -1.08996489 -9.1403466 -0.08924285 0 0 Z " fill="#41926D" transform="translate(251.5,64.8125)"/>
<path d="M0 0 C9.11474494 11.30951355 11.59264574 30.84886734 12 45 C12.02046387 45.6482373 12.04092773 46.29647461 12.06201172 46.96435547 C12.31906918 56.21205066 11.91869896 64.91210828 10 74 C9.80921875 74.97582031 9.6184375 75.95164062 9.421875 76.95703125 C8.9615864 79.3077909 8.48771673 81.65480894 8 84 C7.67 84 7.34 84 7 84 C6.81509503 79.83963807 7.10702927 76.24067615 7.98828125 72.16796875 C9.2988225 65.15412456 9.33041837 58.24217837 9.3125 51.125 C9.32861328 49.85269531 9.34472656 48.58039063 9.36132812 47.26953125 C9.36517776 39.73194224 8.60519665 32.95387393 6.68188477 25.65991211 C6 23 6 23 5.625 19.4375 C4.79717038 14.88443711 2.96294526 10.97205201 1.05859375 6.76953125 C0 4 0 4 0 0 Z " fill="#C0C660" transform="translate(367,142)"/>
<path d="M0 0 C0.33 0 0.66 0 1 0 C1.02689216 1.47906892 1.04634621 2.95827483 1.0625 4.4375 C1.07410156 5.26121094 1.08570313 6.08492187 1.09765625 6.93359375 C1 9 1 9 0 10 C-0.28349647 11.32731267 -0.51363307 12.66615076 -0.71875 14.0078125 C-0.84636719 14.83023438 -0.97398438 15.65265625 -1.10546875 16.5 C-1.23566406 17.36625 -1.36585937 18.2325 -1.5 19.125 C-1.63019531 19.96804687 -1.76039062 20.81109375 -1.89453125 21.6796875 C-2.15174116 23.35285095 -2.40461165 25.02668741 -2.65307617 26.70117188 C-2.94097458 28.60887868 -3.25779963 30.51219378 -3.58203125 32.4140625 C-4.15926956 37.36644349 -4.18425241 42.26818967 -4.1875 47.25 C-4.19974609 48.22324219 -4.21199219 49.19648438 -4.22460938 50.19921875 C-4.23648618 56.16137507 -3.68275533 61.68647143 -2.4309082 67.51855469 C-1.98923235 70.06200702 -1.92709793 72.42393482 -2 75 C-12.13323146 56.09028773 -7.75867711 26.73963652 -2 7 C-1.78988281 6.24589844 -1.57976562 5.49179688 -1.36328125 4.71484375 C-0.92170368 3.13957056 -0.46355259 1.56894722 0 0 Z " fill="#CAC758" transform="translate(128,151)"/>
<path d="M0 0 C2.75790847 3.22934581 3.88431811 6.25325794 5.0625 10.3125 C5.38347656 11.40175781 5.70445312 12.49101562 6.03515625 13.61328125 C6.35355469 14.73089844 6.67195313 15.84851563 7 17 C7.36480469 18.09054688 7.72960937 19.18109375 8.10546875 20.3046875 C9.21402511 24.88413867 9.30123668 29.12036888 9.25 33.8125 C9.23984863 35.14752563 9.23984863 35.14752563 9.22949219 36.50952148 C9.06600057 46.87508016 6.77415207 55.36308742 3 65 C1.88257055 61.64771164 2.15272495 60.26870332 2.875 56.875 C3.05804688 55.98554688 3.24109375 55.09609375 3.4296875 54.1796875 C4 52 4 52 5 51 C6.25537758 41.83193946 6.063612 32.76187067 5.3125 23.5625 C5.24699951 22.65218018 5.18149902 21.74186035 5.11401367 20.80395508 C4.59592242 15.27647127 3.38771433 10.92621222 0.82885742 5.98803711 C0 4 0 4 0 0 Z " fill="#418E6B" transform="translate(319,149)"/>
<path d="M0 0 C3.99575325 5.99362988 3.83109857 12.20456126 2.609375 19.25390625 C0.16868652 26.99839855 -6.03195927 33.15179632 -13 37 C-14.125 35.25 -14.125 35.25 -15 33 C-14.125 30.75 -14.125 30.75 -13 29 C-12.34 29 -11.68 29 -11 29 C-11 28.34 -11 27.68 -11 27 C-10.34 26.67 -9.68 26.34 -9 26 C-8.27840576 24.35636866 -7.60648579 22.68949614 -7 21 C-6.01 21.66 -5.02 22.32 -4 23 C-3.67 22.34 -3.34 21.68 -3 21 C-2.01 21 -1.02 21 0 21 C1.79378744 14.04907366 1.19107603 6.9975717 0 0 Z " fill="#E6C840" transform="translate(271,173)"/>
<path d="M0 0 C0.625 1.75 0.625 1.75 1 4 C0.69006104 4.61335205 0.38012207 5.2267041 0.06079102 5.85864258 C-1.09614721 8.1940868 -1.37252132 9.92686628 -1.59765625 12.51171875 C-1.67693359 13.35154297 -1.75621094 14.19136719 -1.83789062 15.05664062 C-1.91201172 15.92482422 -1.98613281 16.79300781 -2.0625 17.6875 C-2.21615869 19.42092245 -2.37350923 21.15402298 -2.53515625 22.88671875 C-2.600979 23.65201904 -2.66680176 24.41731934 -2.73461914 25.20581055 C-3 27 -3 27 -4 28 C-4.07313567 30.53049402 -4.09247527 33.03304837 -4.0625 35.5625 C-4.05798828 36.27341797 -4.05347656 36.98433594 -4.04882812 37.71679688 C-4.03700864 39.47790013 -4.01907263 41.23896036 -4 43 C-3.34 43 -2.68 43 -2 43 C0.32803018 46.20104149 2.28222353 49.44174874 4 53 C4.66 53.99 5.32 54.98 6 56 C0.7447694 54.0536183 -2.08332395 49.60418309 -4.75 44.9375 C-9.9880284 32.62813326 -7.01865287 18.24412295 -3 6 C-2.04492602 3.97816081 -1.05903354 1.96937756 0 0 Z " fill="#4B9369" transform="translate(179,152)"/>
<path d="M0 0 C0.33 0 0.66 0 1 0 C2.2905697 16.00306423 -4.4934989 35.10198636 -14.75 47.453125 C-15.86375 48.71382813 -15.86375 48.71382813 -17 50 C-17 46.61398915 -16.55994158 46.16292727 -14.625 43.5625 C-11.66612326 39.10346446 -11.14411308 34.89797688 -10.65234375 29.63671875 C-10 27 -10 27 -8.06640625 25.14453125 C-6 24 -6 24 -4 24 C-3.86722656 22.8553125 -3.73445313 21.710625 -3.59765625 20.53125 C-3.05005666 16.15045331 -2.27605068 11.83318057 -1.4375 7.5 C-1.29892578 6.77296875 -1.16035156 6.0459375 -1.01757812 5.296875 C-0.68063335 3.53081963 -0.34064317 1.76534574 0 0 Z " fill="#B1D4D3" transform="translate(499,412)"/>
<path d="M0 0 C1 3 1 3 0.22729492 4.80932617 C-0.18415771 5.46392822 -0.59561035 6.11853027 -1.01953125 6.79296875 C-1.46490234 7.50517578 -1.91027344 8.21738281 -2.36914062 8.95117188 C-2.84544922 9.68916016 -3.32175781 10.42714844 -3.8125 11.1875 C-4.50956055 12.31188477 -4.50956055 12.31188477 -5.22070312 13.45898438 C-7.81437369 17.54857397 -7.81437369 17.54857397 -9 19 C-9.66 19 -10.32 19 -11 19 C-11.3403125 19.804375 -11.3403125 19.804375 -11.6875 20.625 C-15.67099094 27.83322171 -22.21697602 33.47798401 -29 38 C-28.25 33.25 -28.25 33.25 -26 31 C-25.01 31 -24.02 31 -23 31 C-22.87625 30.360625 -22.7525 29.72125 -22.625 29.0625 C-22.41875 28.381875 -22.2125 27.70125 -22 27 C-20 26 -20 26 -17 25 C-17 24.34 -17 23.68 -17 23 C-16.34 23 -15.68 23 -15 23 C-14.87625 21.865625 -14.7525 20.73125 -14.625 19.5625 C-14.41875 18.386875 -14.2125 17.21125 -14 16 C-13.34 15.67 -12.68 15.34 -12 15 C-12 15.66 -12 16.32 -12 17 C-8.88794071 15.01487051 -8.88794071 15.01487051 -7.25 11.8125 C-7.1675 11.214375 -7.085 10.61625 -7 10 C-6.34 10 -5.68 10 -5 10 C-4.9175 9.05125 -4.835 8.1025 -4.75 7.125 C-4 4 -4 4 -1.9375 2.625 C-1.298125 2.41875 -0.65875 2.2125 0 2 C0 1.34 0 0.68 0 0 Z " fill="#3D8C69" transform="translate(320,214)"/>
<path d="M0 0 C0.33 0 0.66 0 1 0 C1.05460198 1.8746679 1.09306244 3.74980905 1.125 5.625 C1.14820313 6.66914063 1.17140625 7.71328125 1.1953125 8.7890625 C0.81936975 14.96956133 -1.12658746 18.63657614 -5.3125 23.125 C-6.07175781 23.95257813 -6.83101563 24.78015625 -7.61328125 25.6328125 C-13.39589909 31.36810941 -16.9609932 33.14626764 -25.125 33.1875 C-31.02526531 33.16121978 -36.40672695 32.990826 -42 31 C-43.5625 28.375 -43.5625 28.375 -44 26 C-43.34 26 -42.68 26 -42 26 C-42 26.66 -42 27.32 -42 28 C-32.02256058 31.4993942 -24.56882248 32.288833 -14.5859375 28.33203125 C-8.33705355 25.11319526 -4.73895844 20.38833124 -2 14 C-1.22217518 10.35352103 -1.22217518 10.35352103 -0.8125 6.625 C-0.57466797 4.75714844 -0.57466797 4.75714844 -0.33203125 2.8515625 C-0.22246094 1.91054688 -0.11289062 0.96953125 0 0 Z " fill="#C1C761" transform="translate(277,340)"/>
<path d="M0 0 C17.7607778 8.01353966 31.30482265 21.54072853 44 36 C43.505 36.99 43.505 36.99 43 38 C41.32722165 36.21371169 39.66175557 34.4214925 38 32.625 C37.28457031 31.86316406 37.28457031 31.86316406 36.5546875 31.0859375 C33 27.2265625 33 27.2265625 33 25 C32.4225 24.7525 31.845 24.505 31.25 24.25 C28.6953267 22.83073705 27.05930146 21.05930146 25 19 C24.360625 18.690625 23.72125 18.38125 23.0625 18.0625 C20.15647941 16.56545909 18.23483734 14.35563936 16 12 C14.83622098 10.61857444 14.83622098 10.61857444 11.625 10.75 C8 10 8 10 6.375 7.625 C5.92125 6.75875 5.4675 5.8925 5 5 C3.35394174 3.96642853 1.69036558 2.95939668 0 2 C0 1.34 0 0.68 0 0 Z " fill="#C2C962" transform="translate(310,82)"/>
<path d="M0 0 C0 8.99071639 -10.6741954 20.85188108 -16.1328125 27.66015625 C-17.96266856 29.95321856 -19.30883549 32.32272099 -20.71875 34.88671875 C-23.49553757 39.46672508 -26.80249374 43.70820155 -30 48 C-30.33 46.68 -30.66 45.36 -31 44 C-30.01 43.505 -30.01 43.505 -29 43 C-28.566875 42.278125 -28.13375 41.55625 -27.6875 40.8125 C-26 38 -26 38 -23.4375 35 C-20.96175481 32.26589778 -20.96175481 32.26589778 -20.0625 29.58984375 C-18.91012012 26.78091779 -17.49462263 24.89351246 -15.5625 22.5625 C-12.82806053 19.15584416 -10.74186983 15.99605431 -9 12 C-8.34 12 -7.68 12 -7 12 C-6.82984375 11.30132812 -6.6596875 10.60265625 -6.484375 9.8828125 C-6.24203125 8.97273438 -5.9996875 8.06265625 -5.75 7.125 C-5.51796875 6.22007812 -5.2859375 5.31515625 -5.046875 4.3828125 C-4 2 -4 2 -1.890625 0.6796875 C-1.26671875 0.45539063 -0.6428125 0.23109375 0 0 Z " fill="#CCCA59" transform="translate(320,336)"/>
<path d="M0 0 C0.33 0 0.66 0 1 0 C1.33898024 5.53667724 0.356601 9.01488249 -2 14 C-3.0641042 17.06712387 -4.04527212 20.14713439 -5 23.25 C-6 26 -6 26 -8 28 C-8.88778692 29.96488831 -8.88778692 29.96488831 -9.625 32.125 C-9.88539063 32.84945312 -10.14578125 33.57390625 -10.4140625 34.3203125 C-10.70410156 35.15175781 -10.70410156 35.15175781 -11 36 C-11.99 36 -12.98 36 -14 36 C-13.79503906 35.39671875 -13.59007812 34.7934375 -13.37890625 34.171875 C-13.10949219 33.37265625 -12.84007812 32.5734375 -12.5625 31.75 C-12.29566406 30.96109375 -12.02882813 30.1721875 -11.75390625 29.359375 C-11.08045292 27.25178012 -10.50849405 25.15246027 -10 23 C-9.34 23 -8.68 23 -8 23 C-7.88785156 22.32582031 -7.77570313 21.65164063 -7.66015625 20.95703125 C-6.87079499 17.42125328 -5.68500151 14.08056434 -4.4375 10.6875 C-4.20353516 10.04232422 -3.96957031 9.39714844 -3.72851562 8.73242188 C-3.15552993 7.15378781 -2.57820536 5.57672974 -2 4 C-1.34 4 -0.68 4 0 4 C0 2.68 0 1.36 0 0 Z " fill="#389173" transform="translate(370,240)"/>
<path d="M0 0 C3.25 0.0625 3.25 0.0625 7 1 C8.72178377 3.18989373 9.743982 5.487964 11 8 C11.99 8.33 12.98 8.66 14 9 C14 9.66 14 10.32 14 11 C14.66 11 15.32 11 16 11 C16 11.66 16 12.32 16 13 C17.32 13.33 18.64 13.66 20 14 C20.226875 14.969375 20.45375 15.93875 20.6875 16.9375 C21.81127063 20.91083188 23.70719566 24.22792686 25.75390625 27.79296875 C30.24480138 35.74706201 30.24480138 35.74706201 29.5703125 39.19921875 C29.38210938 39.79347656 29.19390625 40.38773438 29 41 C28.72027344 40.27296875 28.44054687 39.5459375 28.15234375 38.796875 C22.60903083 24.8940323 15.78278749 15.12171741 5 5 C3.32055965 3.34550183 1.65944541 1.67464179 0 0 Z " fill="#CFCA5B" transform="translate(295,120)"/>
<path d="M0 0 C2.80843358 3.29544518 4.02330964 6.53364192 5.375 10.625 C6.88268629 15.01182216 8.46244612 19.1463586 10.625 23.25 C13.12252 27.99292441 14.64606744 32.82643657 16 38 C15.34 38 14.68 38 14 38 C14 37.34 14 36.68 14 36 C13.01 35.67 12.02 35.34 11 35 C10.67 32.36 10.34 29.72 10 27 C9.34 27 8.68 27 8 27 C7.67 24.69 7.34 22.38 7 20 C6.34 20 5.68 20 5 20 C1.95845778 13.50215979 0 7.22232056 0 0 Z " fill="#3D906D" transform="translate(129,240)"/>
<path d="M0 0 C3.57187008 3.04270414 5.41097255 6.43324479 7.578125 10.5 C9.09509871 13.16720653 10.78082038 15.62760293 12.5625 18.125 C20 28.56673035 20 28.56673035 20 33 C19.46890625 32.28972656 18.9378125 31.57945312 18.390625 30.84765625 C17.68421875 29.92855469 16.9778125 29.00945312 16.25 28.0625 C15.55390625 27.14597656 14.8578125 26.22945313 14.140625 25.28515625 C11.98970965 22.98901487 11.06382739 22.32432407 8 22 C6.875 17.25 6.875 17.25 8 15 C7.01 15.33 6.02 15.66 5 16 C4.87625 14.9275 4.7525 13.855 4.625 12.75 C4.10280215 9.6168129 3.70882871 7.61350274 2 5 C1.34 4.67 0.68 4.34 0 4 C0 2.68 0 1.36 0 0 Z " fill="#419172" transform="translate(171,325)"/>
<path d="M0 0 C4.08319218 -0.0885085 8.16613163 -0.14089063 12.25 -0.1875 C13.38953125 -0.21263672 14.5290625 -0.23777344 15.703125 -0.26367188 C23.57135151 -0.33073062 30.47116051 0.7161147 38 3 C38 3.66 38 4.32 38 5 C38.69480469 4.93039063 39.38960938 4.86078125 40.10546875 4.7890625 C43.87063971 5.06344743 46.08620538 6.44473826 49.3125 8.375 C50.91544922 9.31472656 50.91544922 9.31472656 52.55078125 10.2734375 C53.76314453 11.12808594 53.76314453 11.12808594 55 12 C55 12.66 55 13.32 55 14 C49.44495095 12.35873551 49.44495095 12.35873551 47.24609375 10.5859375 C44.31557679 8.5167377 41.19552859 7.51530911 37.8125 6.4375 C36.56082031 6.02371094 35.30914062 5.60992187 34.01953125 5.18359375 C25.96543636 2.73844091 18.3513424 1.65604693 9.9375 1.375 C8.97650391 1.33632812 8.01550781 1.29765625 7.02539062 1.2578125 C4.68377186 1.16461374 2.34213963 1.07880815 0 1 C0 0.67 0 0.34 0 0 Z " fill="#B6C362" transform="translate(240,106)"/>
<path d="M0 0 C0.75368362 -0.00095673 1.50736725 -0.00191345 2.28388977 -0.00289917 C3.86284469 -0.00357445 5.44180249 -0.0017661 7.02075195 0.00244141 C9.4299136 0.00782173 11.83889076 0.00246264 14.24804688 -0.00390625 C15.79036499 -0.00324579 17.33268299 -0.0019653 18.875 0 C19.58967941 -0.00202423 20.30435883 -0.00404846 21.04069519 -0.00613403 C24.73192024 0.01111558 28.14874359 0.25408042 31.73828125 1.1328125 C31.73828125 1.4628125 31.73828125 1.7928125 31.73828125 2.1328125 C30.18101318 2.12495728 30.18101318 2.12495728 28.59228516 2.11694336 C24.69711182 2.09868197 20.80194218 2.08730413 16.90673828 2.07788086 C15.22899741 2.07288854 13.5512608 2.06609235 11.87353516 2.05737305 C-4.15460086 1.3167463 -4.15460086 1.3167463 -19.38671875 5.1953125 C-23.96020496 7.19983098 -27.3038263 7.50006379 -32.26171875 7.1328125 C-29.61091275 4.4820065 -27.2373299 4.08418909 -23.63671875 3.0703125 C-22.44820312 2.72871094 -21.2596875 2.38710937 -20.03515625 2.03515625 C-13.34218519 0.43466317 -6.84731677 -0.01956029 0 0 Z " fill="#C2C85E" transform="translate(240.26171875,67.8671875)"/>
<path d="M0 0 C0.66 0 1.32 0 2 0 C2.09796875 0.556875 2.1959375 1.11375 2.296875 1.6875 C3.75549561 9.13149485 6.37632513 14.98922267 11 21 C11 21.66 11 22.32 11 23 C11.66 23 12.32 23 13 23 C13.33 23.99 13.66 24.98 14 26 C16.00016466 27.20882096 16.00016466 27.20882096 18 28 C17.67 29.98 17.34 31.96 17 34 C14.45164177 32.72582088 14.10772423 31.57779894 12.8125 29.0625 C10.91193292 25.52486629 8.84277026 22.2615037 6.5 19 C2.70198068 13.68443148 -0.92360271 8.22919186 -3 2 C-2.01 2 -1.02 2 0 2 C0 1.34 0 0.68 0 0 Z " fill="#D5CB54" transform="translate(172,318)"/>
<path d="M0 0 C0.66 0.33 1.32 0.66 2 1 C-3.29974239 7.30239635 -9.22846591 10.06355904 -17.359375 11.3828125 C-23.4852048 11.70865451 -28.52344379 9.56106178 -34 7 C-33.01 6.67 -32.02 6.34 -31 6 C-30.67 5.34 -30.34 4.68 -30 4 C-29.16984375 4.48855469 -28.3396875 4.97710937 -27.484375 5.48046875 C-23.46836684 7.2318445 -20.61231296 7.36853762 -16.25 7.3125 C-14.27773437 7.30669922 -14.27773437 7.30669922 -12.265625 7.30078125 C-8.91706899 7.34325076 -8.91706899 7.34325076 -7 5 C-6.01 5 -5.02 5 -4 5 C-4 4.01 -4 3.02 -4 2 C-2.125 0.9375 -2.125 0.9375 0 0 Z " fill="#41926A" transform="translate(269,361)"/>
<path d="M0 0 C2.68777802 -0.0544207 5.37443212 -0.09387266 8.0625 -0.125 C8.81466797 -0.14175781 9.56683594 -0.15851563 10.34179688 -0.17578125 C18.0543289 -0.24255642 23.69221637 1.412521 30 6 C30.99 6.66 31.98 7.32 33 8 C34.203125 10.2421875 34.203125 10.2421875 35.25 12.875 C35.60578125 13.73867188 35.9615625 14.60234375 36.328125 15.4921875 C37.04125337 18.15398061 36.92680319 19.44535019 36 22 C35.76925781 21.40832031 35.53851563 20.81664062 35.30078125 20.20703125 C31.77625308 11.66736419 26.6638408 6.35993367 18 2.75 C12.19994664 1.25066648 5.93541171 1.85182051 0 2 C0 1.34 0 0.68 0 0 Z " fill="#CACA59" transform="translate(240,317)"/>
<path d="M0 0 C0 7.88182656 -9.96116781 17.26615648 -15 23 C-18.14341993 24.57170996 -21.55771451 24.23175783 -25 24 C-28.94875582 22.68374806 -29.54992713 20.94634602 -31.6875 17.4375 C-32.31011719 16.42558594 -32.93273437 15.41367187 -33.57421875 14.37109375 C-34.04472656 13.58863281 -34.51523438 12.80617188 -35 12 C-31.81595595 13.36552817 -31.09656134 13.8283354 -29.3125 17 C-26.49662135 20.65303176 -24.63402251 21.15791077 -20.31640625 22.26171875 C-16.75962525 21.85985648 -15.15707055 19.6322445 -13 17 C-10.85546003 14.29347148 -8.79282319 11.53384728 -6.75 8.75 C-5.6828844 7.30685319 -4.61520622 5.86412215 -3.546875 4.421875 C-3.08120117 3.78862305 -2.61552734 3.15537109 -2.13574219 2.50292969 C-1 1 -1 1 0 0 Z " fill="#C6CB5E" transform="translate(271,408)"/>
<path d="M0 0 C-0.92941406 0.37511719 -1.85882813 0.75023438 -2.81640625 1.13671875 C-11.49965865 4.68708774 -11.49965865 4.68708774 -19.34765625 9.765625 C-23.38130884 12.77894466 -27.89348784 16 -33 16 C-30.61042731 12.75700849 -28.7952131 10.49097658 -25 9 C-25 8.01 -25 7.02 -25 6 C-21.7 5.67 -18.4 5.34 -15 5 C-15 4.34 -15 3.68 -15 3 C-14.01 3 -13.02 3 -12 3 C-12 2.34 -12 1.68 -12 1 C-10.56496445 0.63597631 -9.12683494 0.28413409 -7.6875 -0.0625 C-6.88699219 -0.25972656 -6.08648437 -0.45695312 -5.26171875 -0.66015625 C-3 -1 -3 -1 0 0 Z " fill="#388E6E" transform="translate(204,76)"/>
<path d="M0 0 C11.61054776 1.29149586 28.37591313 3.37591313 37 12 C31.33758887 10.80791345 25.72505257 9.45659468 20.125 8 C18.21074219 7.505 18.21074219 7.505 16.2578125 7 C13 6 13 6 10 4 C8.0103005 3.60986284 6.00980131 3.26797351 4 3 C4 2.34 4 1.68 4 1 C2.68 0.67 1.36 0.34 0 0 Z " fill="#CFCB56" transform="translate(272,70)"/>
<path d="M0 0 C0.66 0.33 1.32 0.66 2 1 C-10.99719888 21.99859944 -10.99719888 21.99859944 -15 24 C-14.649375 23.29875 -14.29875 22.5975 -13.9375 21.875 C-12.82582909 18.46587588 -13.24699504 16.4638228 -14 13 C-14 12.01 -14 11.02 -14 10 C-13.01 9.67 -12.02 9.34 -11 9 C-11 9.66 -11 10.32 -11 11 C-9.35 11 -7.7 11 -6 11 C-5.7525 10.29875 -5.505 9.5975 -5.25 8.875 C-3.83911974 5.62997541 -2.02104602 2.89683263 0 0 Z " fill="#E2C93F" transform="translate(287,384)"/>
<path d="M0 0 C0.33 1.32 0.66 2.64 1 4 C0.01 4.33 -0.98 4.66 -2 5 C-2.67784992 7.33010909 -3.34416793 9.66359824 -4 12 C-4.99 12.66 -5.98 13.32 -7 14 C-7.33 14.99 -7.66 15.98 -8 17 C-8.66 17 -9.32 17 -10 17 C-10.268125 17.556875 -10.53625 18.11375 -10.8125 18.6875 C-12 21 -12 21 -13.5 23.4375 C-15.07647835 25.92851389 -15.07647835 25.92851389 -15.875 28.625 C-17.31805876 31.67145739 -19.03778998 32.51889499 -22 34 C-20.61504715 29.96055419 -18.67115578 27.29966302 -16 24 C-15.05820845 22.34374589 -14.1178289 20.68659828 -13.1953125 19.01953125 C-10.72352629 14.84334343 -7.82232948 10.94370147 -5 7 C-4.484375 6.27554687 -3.96875 5.55109375 -3.4375 4.8046875 C-2.29474138 3.20092966 -1.14788999 1.60008907 0 0 Z " fill="#469266" transform="translate(316,345)"/>
<path d="M0 0 C1.51303711 0.00676758 1.51303711 0.00676758 3.05664062 0.01367188 C5.51699147 0.02533231 7.97721239 0.04169622 10.4375 0.0625 C10.4375 0.3925 10.4375 0.7225 10.4375 1.0625 C9.2721875 1.06507812 8.106875 1.06765625 6.90625 1.0703125 C-4.4839444 1.27973865 -14.79822762 3.00410207 -25.77734375 6.06689453 C-26.74929687 6.33614746 -27.72125 6.60540039 -28.72265625 6.8828125 C-29.58511963 7.13305176 -30.44758301 7.38329102 -31.33618164 7.64111328 C-33.5625 8.0625 -33.5625 8.0625 -36.5625 7.0625 C-35.758125 6.77375 -34.95375 6.485 -34.125 6.1875 C-31.4298532 5.32987432 -31.4298532 5.32987432 -30.5625 3.0625 C-27.9225 3.3925 -25.2825 3.7225 -22.5625 4.0625 C-22.5625 3.4025 -22.5625 2.7425 -22.5625 2.0625 C-16.14933046 -1.14408477 -7.00922213 -0.06030436 0 0 Z " fill="#DBCC54" transform="translate(249.5625,104.9375)"/>
<path d="M0 0 C0.66 0.33 1.32 0.66 2 1 C1.67 1.78375 1.34 2.5675 1 3.375 C-1.42959623 12.18228633 0.00989887 19.85407468 4 28 C5.53264623 30.25338072 7.09097494 32.03794646 9 34 C6.02810322 33.39211202 3.72890232 32.85701242 1.7109375 30.484375 C-0.42559971 26.9490976 -1.51130592 24.21827387 -1 20 C-1.66 20 -2.32 20 -3 20 C-3.55353075 6.3667426 -3.55353075 6.3667426 0 0 Z " fill="#D8CB50" transform="translate(224,332)"/>
<path d="M0 0 C0.33 0.66 0.66 1.32 1 2 C0.54882812 3.11632812 0.09765625 4.23265625 -0.3671875 5.3828125 C-2.50424564 10.76314203 -2.75593096 16.14357496 -3.125 21.875 C-3.26997299 23.93514256 -3.41824132 25.99505673 -3.5703125 28.0546875 C-3.65949951 29.40796143 -3.65949951 29.40796143 -3.75048828 30.78857422 C-4 33 -4 33 -5 35 C-5.66 35 -6.32 35 -7 35 C-7 35.66 -7 36.32 -7 37 C-7.66 37 -8.32 37 -9 37 C-9 37.66 -9 38.32 -9 39 C-9.66 38.67 -10.32 38.34 -11 38 C-9.99088542 36.30729167 -8.98177083 34.61458333 -7.97265625 32.921875 C-6.35245538 29.72051424 -5.87943731 26.50010177 -5.5703125 22.953125 C-5.49683594 22.19 -5.42335938 21.426875 -5.34765625 20.640625 C-5.20072752 19.06307441 -5.0599695 17.48493535 -4.92578125 15.90625 C-3.71936103 3.71936103 -3.71936103 3.71936103 0 0 Z " fill="#C5C75C" transform="translate(282,263)"/>
<path d="M0 0 C2 1 2 1 3.10400391 3.22753906 C4.64411548 7.99307233 4.38239385 12.7791157 4.375 17.75 C4.37338867 18.86294434 4.37177734 19.97588867 4.37011719 21.12255859 C4.189876 33.37365829 2.47403884 44.41848274 -4 55 C-5 53 -5 53 -4.07421875 50.09375 C-3.61660156 48.9078125 -3.15898437 47.721875 -2.6875 46.5 C0.77905096 37.06745162 2.16492084 28.96586274 2.25 18.9375 C2.25942627 18.09815918 2.26885254 17.25881836 2.27856445 16.39404297 C2.24897696 10.6964972 1.45741655 5.50515032 0 0 Z " fill="#C2C761" transform="translate(325,164)"/>
<path d="M0 0 C7.99522194 -0.51582077 14.86143557 0.54873287 21.1875 5.82421875 C22.86978186 7.49632551 24.46607645 9.19179873 26 11 C25.67 11.66 25.34 12.32 25 13 C24.4225 12.649375 23.845 12.29875 23.25 11.9375 C20.64198224 10.85082593 19.60582371 11.06934867 17 12 C16.67 9.69 16.34 7.38 16 5 C12.07142246 3.14868517 9.01224888 2.77995057 4.6875 2.875 C3.61886719 2.89304688 2.55023438 2.91109375 1.44921875 2.9296875 C0.23685547 2.96449219 0.23685547 2.96449219 -1 3 C-0.67 2.01 -0.34 1.02 0 0 Z " fill="#CAC95C" transform="translate(245,160)"/>
<path d="M0 0 C0.33 0 0.66 0 1 0 C1.03738281 1.2065625 1.07476562 2.413125 1.11328125 3.65625 C1.17899219 5.27086178 1.24543771 6.88544378 1.3125 8.5 C1.33505859 9.29148437 1.35761719 10.08296875 1.38085938 10.8984375 C1.70019103 17.98179426 3.48619262 23.87369813 7.1875 30 C7.785625 30.99 8.38375 31.98 9 33 C6 33 6 33 4.3125 31.75 C3 30 3 30 3 26 C2.34 26 1.68 26 1 26 C-2.5845327 17.93480144 -1.30819145 8.50324442 0 0 Z " fill="#DACC53" transform="translate(222,272)"/>
<path d="M0 0 C0.6484375 1.85546875 0.6484375 1.85546875 1 4 C0.21625 4.763125 -0.5675 5.52625 -1.375 6.3125 C-4.54726896 9.56029918 -4.73867448 11.55746619 -5 16 C-5.66 16 -6.32 16 -7 16 C-7.825 16.99 -8.65 17.98 -9.5 19 C-10.325 19.99 -11.15 20.98 -12 22 C-12.66 22 -13.32 22 -14 22 C-14 23.32 -14 24.64 -14 26 C-14.99 26 -15.98 26 -17 26 C-15.51177855 21.73323744 -13.34625617 18.37436038 -10.75 14.6875 C-10.35176025 14.1200708 -9.95352051 13.5526416 -9.54321289 12.96801758 C-6.44958475 8.57981738 -3.27682938 4.25345304 0 0 Z " fill="#3E916D" transform="translate(293,379)"/>
<path d="M0 0 C0.66 0 1.32 0 2 0 C2 1.32 2 2.64 2 4 C2.66 4 3.32 4 4 4 C6.96347337 9.74172966 6.73366969 15.95750601 5 22.0625 C4.505 23.5165625 4.505 23.5165625 4 25 C3.34 25 2.68 25 2 25 C2 25.66 2 26.32 2 27 C1.34 27 0.68 27 0 27 C0.33 25.9275 0.66 24.855 1 23.75 C2.96901124 15.83176192 2.78752511 7.66569404 0 0 Z " fill="#3E906F" transform="translate(271,171)"/>
<path d="M0 0 C0.66 0 1.32 0 2 0 C1.96519531 1.26714844 1.93039063 2.53429687 1.89453125 3.83984375 C1.86636763 5.53904911 1.83907025 7.23826898 1.8125 8.9375 C1.78736328 9.76830078 1.76222656 10.59910156 1.73632812 11.45507812 C1.63686214 19.97599787 3.6294418 27.24844112 9 34 C10.930676 35.7931094 12.91069912 37.38554023 15 39 C14.01 39.495 14.01 39.495 13 40 C11.68113228 38.90344712 10.37009943 37.79746577 9.0625 36.6875 C8.33160156 36.07261719 7.60070312 35.45773438 6.84765625 34.82421875 C5 33 5 33 4 30 C3.34 30 2.68 30 2 30 C-0.00060017 23.38384194 -0.24246007 17.38496734 -0.125 10.5 C-0.11597656 9.48679688 -0.10695312 8.47359375 -0.09765625 7.4296875 C-0.07429007 4.95287199 -0.04153168 2.47656621 0 0 Z " fill="#CCCC5F" transform="translate(171,170)"/>
<path d="M0 0 C2.45717654 1.27095338 3.77624688 2.45222704 4.828125 5.02734375 C5.32259298 6.60806319 5.80414473 8.19287447 6.2734375 9.78125 C7.14632247 12.4468342 8.5315388 14.62249139 10 17 C10 17.99 10 18.98 10 20 C10.66 20 11.32 20 12 20 C12 20.99 12 21.98 12 23 C12.99 23 13.98 23 15 23 C15.33 25.97 15.66 28.94 16 32 C13.28115192 29.28115192 12.05358468 27.49244035 10.37109375 24.140625 C9.65469727 22.71363281 9.65469727 22.71363281 8.92382812 21.2578125 C8.43333984 20.26523437 7.94285156 19.27265625 7.4375 18.25 C6.6959668 16.78433594 6.6959668 16.78433594 5.93945312 15.2890625 C3.43110106 10.25199286 1.29403993 5.48244137 0 0 Z " fill="#CCCA5B" transform="translate(140,265)"/>
<path d="M0 0 C0.33 0.66 0.66 1.32 1 2 C0.69320312 2.54140625 0.38640625 3.0828125 0.0703125 3.640625 C-1.44001841 6.96996759 -1.21296771 10.17039072 -1.125 13.75 C-1.11597656 14.44738281 -1.10695312 15.14476562 -1.09765625 15.86328125 C-1.07419888 17.57566958 -1.03833104 19.28788004 -1 21 C-0.34 21 0.32 21 1 21 C1.66 24.3 2.32 27.6 3 31 C-1.41959325 27.49480535 -2.8454877 23.35425996 -4 18 C-4.72836523 11.54314066 -4.04928841 6.73266222 -1 1 C-0.67 0.67 -0.34 0.34 0 0 Z " fill="#469267" transform="translate(227,331)"/>
<path d="M0 0 C-1.8125 2 -1.8125 2 -4 4 C-4.99 4 -5.98 4 -7 4 C-7.66 5.32 -8.32 6.64 -9 8 C-9.66 8 -10.32 8 -11 8 C-11.66 9.65 -12.32 11.3 -13 13 C-14.04449911 9.86650268 -13.93423645 9.01031744 -13 6 C-13.66 6 -14.32 6 -15 6 C-14.34 4.68 -13.68 3.36 -13 2 C-11.68 2 -10.36 2 -9 2 C-5.5647952 -0.29013653 -4.014669 -0.17842973 0 0 Z " fill="#E2C93F" transform="translate(240,319)"/>
<path d="M0 0 C2.10546875 0.4296875 2.10546875 0.4296875 4 1 C3.52949219 1.53109375 3.05898438 2.0621875 2.57421875 2.609375 C1.95160156 3.31578125 1.32898438 4.0221875 0.6875 4.75 C0.07261719 5.44609375 -0.54226563 6.1421875 -1.17578125 6.859375 C-2.07876953 7.91898437 -2.07876953 7.91898437 -3 9 C-3.53625 9.61875 -4.0725 10.2375 -4.625 10.875 C-6.37732211 13.58313416 -6.97141054 16.11284616 -7.6875 19.25 C-7.93886719 20.32765625 -8.19023437 21.4053125 -8.44921875 22.515625 C-8.63097656 23.33546875 -8.81273437 24.1553125 -9 25 C-9.33 25 -9.66 25 -10 25 C-10.05429959 23.25034642 -10.09292823 21.50020213 -10.125 19.75 C-10.15980469 18.28820312 -10.15980469 18.28820312 -10.1953125 16.796875 C-9.99862781 13.9803502 -9.44568916 12.39050964 -8 10 C-7.34 10 -6.68 10 -6 10 C-6 9.34 -6 8.68 -6 8 C-5.34 8 -4.68 8 -4 8 C-3.896875 7.236875 -3.79375 6.47375 -3.6875 5.6875 C-2.94960299 2.80299352 -2.46756016 1.64504011 0 0 Z " fill="#3A8D6E" transform="translate(287,252)"/>
<path d="M0 0 C0.33 0 0.66 0 1 0 C1.28267199 14.93812729 0.49456505 26.97018826 -5 41 C-6.11742945 37.64771164 -5.84727505 36.26870332 -5.125 32.875 C-4.94195312 31.98554688 -4.75890625 31.09609375 -4.5703125 30.1796875 C-4 28 -4 28 -3 27 C-0.72621132 18.17130491 -0.43196048 9.05980268 0 0 Z " fill="#54966A" transform="translate(327,173)"/>
<path d="M0 0 C0.66 0.33 1.32 0.66 2 1 C1.3709375 1.65484375 0.741875 2.3096875 0.09375 2.984375 C-5.48177036 8.92935756 -10.14059785 14.85241551 -14.50390625 21.76171875 C-14.99761719 22.50035156 -15.49132812 23.23898438 -16 24 C-16.33 24 -16.66 24 -17 24 C-17 22.35 -17 20.7 -17 19 C-16.34 18.67 -15.68 18.34 -15 18 C-14.9175 17.4225 -14.835 16.845 -14.75 16.25 C-14 14 -14 14 -11 11.5625 C-7.82206643 9.30904657 -7.82206643 9.30904657 -7.125 6.1875 C-7.08375 5.465625 -7.0425 4.74375 -7 4 C-6.1028125 3.8453125 -6.1028125 3.8453125 -5.1875 3.6875 C-2.71756736 2.91123545 -1.67748765 1.92911079 0 0 Z " fill="#D1CB55" transform="translate(250,216)"/>
<path d="M0 0 C0 0.33 0 0.66 0 1 C-2.76989964 1.67076489 -5.54079742 2.33676317 -8.3125 3 C-9.09818359 3.19078125 -9.88386719 3.3815625 -10.69335938 3.578125 C-11.8293457 3.84882812 -11.8293457 3.84882812 -12.98828125 4.125 C-13.68477783 4.29257813 -14.38127441 4.46015625 -15.09887695 4.6328125 C-17 5 -17 5 -20 5 C-20.33 5.99 -20.66 6.98 -21 8 C-25.38985162 10.87028759 -30.95361784 11.78886828 -36 13 C-32.52495015 8.83727538 -28.60388517 7.29566214 -23.6875 5.375 C-22.95337891 5.0759375 -22.21925781 4.776875 -21.46289062 4.46875 C-14.19669174 1.55453359 -7.85087888 -0.27546943 0 0 Z " fill="#F2F8F8" transform="translate(77,0)"/>
<path d="M0 0 C4.02361529 1.47965208 5.09389839 3.53847897 6.9375 7.3125 C9.1845423 11.67074325 11.48100164 14.57360686 15 18 C16.57986097 20.55977473 18.03009488 23.14696741 19 26 C18.67 26.66 18.34 27.32 18 28 C13.66492553 22.34242637 9.58047455 16.55332853 5.625 10.625 C5.07972656 9.81933594 4.53445312 9.01367188 3.97265625 8.18359375 C3.45832031 7.41402344 2.94398438 6.64445312 2.4140625 5.8515625 C1.9495166 5.15885254 1.4849707 4.46614258 1.00634766 3.75244141 C0 2 0 2 0 0 Z " fill="#C8CA5A" transform="translate(196,362)"/>
<path d="M0 0 C-0.81404297 0.36351563 -0.81404297 0.36351563 -1.64453125 0.734375 C-2.35996094 1.06953125 -3.07539063 1.4046875 -3.8125 1.75 C-4.52019531 2.07484375 -5.22789062 2.3996875 -5.95703125 2.734375 C-8.13906614 3.89342456 -8.13906614 3.89342456 -9.4375 6.125 C-11 8 -11 8 -13.48046875 8.390625 C-14.82044922 8.32101563 -14.82044922 8.32101563 -16.1875 8.25 C-17.08855469 8.21390625 -17.98960937 8.1778125 -18.91796875 8.140625 C-19.60503906 8.09421875 -20.29210937 8.0478125 -21 8 C-17.49906568 4.98906754 -14.19431119 2.9687952 -9.9375 1.1875 C-8.91527344 0.74792969 -7.89304688 0.30835937 -6.83984375 -0.14453125 C-3.96318575 -1.01108985 -2.748916 -1.07451633 0 0 Z " fill="#DDC948" transform="translate(208,76)"/>
<path d="M0 0 C1.03125 0.61875 2.0625 1.2375 3.125 1.875 C10.24975112 5.88355779 16.93603882 6.50415773 25 7 C25 7.66 25 8.32 25 9 C19.72 9 14.44 9 9 9 C8.67 8.01 8.34 7.02 8 6 C7.01 6 6.02 6 5 6 C5 5.34 5 4.68 5 4 C4.360625 3.896875 3.72125 3.79375 3.0625 3.6875 C2.381875 3.460625 1.70125 3.23375 1 3 C0.67 2.01 0.34 1.02 0 0 Z " fill="#D6CC51" transform="translate(231,305)"/>
<path d="M0 0 C0 0.66 0 1.32 0 2 C-7.83691233 7.05607247 -14.76656567 8.0718376 -24 7 C-26.66626165 6.25157568 -28.58283158 5.3812391 -31 4 C-29.25 3.375 -29.25 3.375 -27 3 C-26.4225 3.309375 -25.845 3.61875 -25.25 3.9375 C-21.78976389 5.57150038 -18.80432504 5.18709795 -15 5 C-14.67 4.67 -14.34 4.34 -14 4 C-11.66702567 3.95907063 -9.33294775 3.95758277 -7 4 C-7 3.34 -7 2.68 -7 2 C-4.35261084 0.5393715 -3.10551666 0 0 0 Z " fill="#52905D" transform="translate(216,205)"/>
<path d="M0 0 C0 5.24877074 -1.79294044 8.95631621 -5 13 C-5.33 13.99 -5.66 14.98 -6 16 C-7.32 16 -8.64 16 -10 16 C-10 16.66 -10 17.32 -10 18 C-10.66 18 -11.32 18 -12 18 C-10.51724605 13.62466048 -8.24005492 10.40276821 -5.4375 6.75 C-4.8197168 5.93789063 -4.8197168 5.93789063 -4.18945312 5.109375 C-1.21552579 1.21552579 -1.21552579 1.21552579 0 0 Z " fill="#3D9270" transform="translate(275,405)"/>
<path d="M0 0 C5.61 0 11.22 0 17 0 C17 0.33 17 0.66 17 1 C19.31 1.66 21.62 2.32 24 3 C24 3.33 24 3.66 24 4 C15.44062871 4.36741339 8.13777913 3.73977333 0 1 C0 0.67 0 0.34 0 0 Z " fill="#A2CCCA" transform="translate(67,496)"/>
<path d="M0 0 C1.98 0.66 3.96 1.32 6 2 C6 2.66 6 3.32 6 4 C7.32 4 8.64 4 10 4 C10.33 5.32 10.66 6.64 11 8 C11.99 8 12.98 8 14 8 C14.33 8.99 14.66 9.98 15 11 C15.99 11.33 16.98 11.66 18 12 C18.33 13.98 18.66 15.96 19 18 C14.07769446 13.88133618 9.48818628 9.58413325 5 5 C4.02206576 4.01960245 3.04304674 3.04028464 2.0625 2.0625 C1.381875 1.381875 0.70125 0.70125 0 0 Z " fill="#46926A" transform="translate(329,93)"/>
<path d="M0 0 C0.66 0 1.32 0 2 0 C2 0.66 2 1.32 2 2 C11.8390296 5.45084963 19.77142421 5.29886677 30 4 C29.67 4.66 29.34 5.32 29 6 C21.05977965 8.64674012 9.81805624 7.78269798 2 5 C0.4375 2.375 0.4375 2.375 0 0 Z " fill="#CFCB55" transform="translate(233,366)"/>
<path d="M0 0 C1 3 1 3 0.2734375 4.8046875 C-0.14679688 5.52914063 -0.56703125 6.25359375 -1 7 C-1.78503906 8.45792969 -1.78503906 8.45792969 -2.5859375 9.9453125 C-3.17632812 10.99460937 -3.76671875 12.04390625 -4.375 13.125 C-4.96023438 14.17945313 -5.54546875 15.23390625 -6.1484375 16.3203125 C-7.98526058 18.97866827 -9.0103587 19.93321169 -12 21 C-10.72341628 17.53498703 -9.23378941 14.65160449 -7.125 11.625 C-4.53994938 7.84246269 -2.21717314 4.00796683 0 0 Z " fill="#418D63" transform="translate(330,322)"/>
<path d="M0 0 C0.33 0 0.66 0 1 0 C1.25 5.625 1.25 5.625 -1 9 C-1.66 9 -2.32 9 -3 9 C-2.938125 9.763125 -2.87625 10.52625 -2.8125 11.3125 C-3 14 -3 14 -4.375 15.8125 C-6 17 -6 17 -8 17 C-8 17.99 -8 18.98 -8 20 C-8.66 20 -9.32 20 -10 20 C-8.39978312 15.78636358 -6.46113464 11.77223463 -4.4375 7.75 C-4.12103516 7.11320312 -3.80457031 6.47640625 -3.47851562 5.8203125 C-1.12673241 1.12673241 -1.12673241 1.12673241 0 0 Z " fill="#3D8C68" transform="translate(352,283)"/>
<path d="M0 0 C0.33 0 0.66 0 1 0 C1.69746476 15.499217 1.69746476 15.499217 -3.3125 21.59765625 C-4.48339625 22.79183737 -5.73502548 23.90596798 -7 25 C-6.34 23.02 -5.68 21.04 -5 19 C-4.34 19 -3.68 19 -3 19 C-2.86722656 17.71222656 -2.73445313 16.42445313 -2.59765625 15.09765625 C-2.41950101 13.41924638 -2.24110308 11.74086227 -2.0625 10.0625 C-1.93198242 8.78729492 -1.93198242 8.78729492 -1.79882812 7.48632812 C-1.71181641 6.67744141 -1.62480469 5.86855469 -1.53515625 5.03515625 C-1.456604 4.2862915 -1.37805176 3.53742676 -1.29711914 2.76586914 C-1 1 -1 1 0 0 Z " fill="#3F946F" transform="translate(276,278)"/>
<path d="M0 0 C3.31938559 3.13666712 6.05462121 6.58007057 8.75 10.25 C9.36681641 11.08144531 9.36681641 11.08144531 9.99609375 11.9296875 C11.00035358 13.28427052 12.00059353 14.64183224 13 16 C12.67 16.66 12.34 17.32 12 18 C11.01 17.67 10.02 17.34 9 17 C9 16.34 9 15.68 9 15 C8.34 15 7.68 15 7 15 C5.5393715 12.35261084 5 11.10551666 5 8 C4.34 8 3.68 8 3 8 C0.25624329 5.04518508 0 4.22528092 0 0 Z " fill="#3C906D" transform="translate(226,407)"/>
<path d="M0 0 C0.99 0.33 1.98 0.66 3 1 C2.35155914 5.19283118 1.48783354 9.26499921 0.4375 13.375 C0.16808594 14.43460938 -0.10132813 15.49421875 -0.37890625 16.5859375 C-0.58386719 17.38257813 -0.78882813 18.17921875 -1 19 C-1.66 19 -2.32 19 -3 19 C-3.33 20.65 -3.66 22.3 -4 24 C-5.20186843 20.3943947 -4.66097664 18.97715732 -3.625 15.375 C-3.34914063 14.39273438 -3.07328125 13.41046875 -2.7890625 12.3984375 C-2 10 -2 10 -1 9 C-0.76807135 7.48530552 -0.58784762 5.96245438 -0.4375 4.4375 C-0.35371094 3.61121094 -0.26992188 2.78492188 -0.18359375 1.93359375 C-0.12300781 1.29550781 -0.06242187 0.65742188 0 0 Z " fill="#D2C952" transform="translate(371,225)"/>
<path d="M0 0 C1 2 1 2 0.3125 4.1875 C-0.9255698 6.84050672 -2.30278315 9.36100455 -3.78125 11.88671875 C-6.27403396 16.20914222 -8.62079845 20.61433848 -11 25 C-12 23 -12 23 -11.3984375 21.1875 C-11.06070313 20.465625 -10.72296875 19.74375 -10.375 19 C-10.00246094 18.20207031 -9.62992188 17.40414062 -9.24609375 16.58203125 C-8.83488281 15.72996094 -8.42367187 14.87789062 -8 14 C-7.57847656 13.11699219 -7.15695313 12.23398438 -6.72265625 11.32421875 C-4.74192034 7.26039887 -2.81070888 3.56023125 0 0 Z " fill="#C6C85E" transform="translate(141,126)"/>
<path d="M0 0 C0.94875 0.04125 1.8975 0.0825 2.875 0.125 C2.48828125 0.56070313 2.1015625 0.99640625 1.703125 1.4453125 C-1.55832935 5.17499544 -4.45848029 8.93475473 -7.125 13.125 C-7.785 14.115 -8.445 15.105 -9.125 16.125 C-9.79589255 10.92558273 -7.53471959 6.60144989 -5.125 2.125 C-3.125 0.125 -3.125 0.125 0 0 Z " fill="#368D6F" transform="translate(235.125,161.875)"/>
<path d="M0 0 C0.33 1.32 0.66 2.64 1 4 C0.34 4 -0.32 4 -1 4 C-1.1546875 5.5778125 -1.1546875 5.5778125 -1.3125 7.1875 C-1.98328205 10.90729135 -2.89455759 12.92956315 -5 16 C-5.33 16.66 -5.66 17.32 -6 18 C-8.0625 18.625 -8.0625 18.625 -10 19 C-8.62394084 14.23448987 -6.53221934 10.2751447 -3.875 6.125 C-3.50246094 5.53203125 -3.12992187 4.9390625 -2.74609375 4.328125 C-1.83635 2.8818657 -0.91896202 1.44041954 0 0 Z " fill="#3E8F6D" transform="translate(341,303)"/>
<path d="M0 0 C0.33 0.99 0.66 1.98 1 3 C0.39414062 3.52207031 -0.21171875 4.04414063 -0.8359375 4.58203125 C-7.39665339 10.34536782 -13.2453187 16.44945852 -19 23 C-19.33 22.34 -19.66 21.68 -20 21 C-14.68654664 14.70127052 -9.15480229 8.49093879 -3 3 C-2.34 3 -1.68 3 -1 3 C-0.67 2.01 -0.34 1.02 0 0 Z " fill="#C0C863" transform="translate(303,240)"/>
<path d="M0 0 C0.66 0.33 1.32 0.66 2 1 C-0.46871083 3.68653826 -2.51444277 5.76261647 -5.8125 7.375 C-10.15348245 9.58804987 -13.44356898 12.70533675 -17 16 C-17.66 15.67 -18.32 15.34 -19 15 C-14.95976698 10.74460664 -11.09150344 6.96017642 -6 4 C-5.34 4 -4.68 4 -4 4 C-4 3.34 -4 2.68 -4 2 C-2.125 0.9375 -2.125 0.9375 0 0 Z " fill="#4B8F5F" transform="translate(212,116)"/>
<path d="M0 0 C0.97918775 3.07556958 1.1498998 3.68592423 -0.3125 6.75 C-0.869375 7.4925 -1.42625 8.235 -2 9 C-2.66 9 -3.32 9 -4 9 C-4.185625 9.680625 -4.37125 10.36125 -4.5625 11.0625 C-6.58082253 15.18689821 -9.66287393 17.90378945 -13 21 C-13.66 20.67 -14.32 20.34 -15 20 C-10.41176471 14.39215686 -10.41176471 14.39215686 -8.03125 12.125 C-5.82912572 9.82123922 -4.34450053 7.50413728 -2.75 4.75 C-1.96882813 3.41195312 -1.96882813 3.41195312 -1.171875 2.046875 C-0.59179688 1.03367188 -0.59179688 1.03367188 0 0 Z " fill="#C1C65D" transform="translate(319,219)"/>
<path d="M0 0 C0 3.06253172 -0.44480045 4.35933014 -1.6796875 7.08984375 C-2.03160156 7.87423828 -2.38351563 8.65863281 -2.74609375 9.46679688 C-3.11863281 10.28212891 -3.49117187 11.09746094 -3.875 11.9375 C-4.23980469 12.74896484 -4.60460937 13.56042969 -4.98046875 14.39648438 C-6.59088454 17.96575137 -8.23193993 21.50564893 -10 25 C-10.1953125 18.9453125 -10.1953125 18.9453125 -10 17 C-9.34 16.34 -8.68 15.68 -8 15 C-7.690625 13.865625 -7.38125 12.73125 -7.0625 11.5625 C-6.02837352 8.09513474 -5.51206102 7.29362093 -3 5 C-2.64830932 3.67139075 -2.31229724 2.33841672 -2 1 C-1.34 0.67 -0.68 0.34 0 0 Z " fill="#418F68" transform="translate(137,130)"/>
<path d="M0 0 C1.39195915 4.17587745 -0.17676781 6.13474776 -2 10 C-5.96 10 -9.92 10 -14 10 C-11 8 -11 8 -7.5625 6.125 C-4.57433144 4.44098975 -2.29992784 2.57591918 0 0 Z " fill="#CDC64E" transform="translate(270,302)"/>
<path d="M0 0 C0.33 0 0.66 0 1 0 C1.4969092 8.11618358 -1.46137892 13.58332882 -6 20 C-7 18 -7 18 -6.00390625 14.7421875 C-5.53110016 13.4502948 -5.05028031 12.16131362 -4.5625 10.875 C-4.19801758 9.88693359 -4.19801758 9.88693359 -3.82617188 8.87890625 C-3.22421679 7.25008662 -2.61297588 5.62470425 -2 4 C-1.34 4 -0.68 4 0 4 C0 2.68 0 1.36 0 0 Z " fill="#43926D" transform="translate(370,240)"/>
<path d="M0 0 C1.65 0 3.3 0 5 0 C1.375 5.875 1.375 5.875 -2 7 C-2.99 8.485 -2.99 8.485 -4 10 C-4.66 10 -5.32 10 -6 10 C-6.28875 10.639375 -6.5775 11.27875 -6.875 11.9375 C-8 14 -8 14 -10 15 C-9.34 13.02 -8.68 11.04 -8 9 C-7.01 9 -6.02 9 -5 9 C-5 7.68 -5 6.36 -5 5 C-3.35 4.34 -1.7 3.68 0 3 C0 2.01 0 1.02 0 0 Z " fill="#449069" transform="translate(161,97)"/>
<path d="M0 0 C6.57675361 0.86536232 13.44183181 2.29455454 19 6 C19 6.99 19 7.98 19 9 C14.70480323 7.71144097 10.87167664 5.99493155 6.90234375 3.953125 C4.65234929 2.82581771 2.3556069 1.88335259 0 1 C0 0.67 0 0.34 0 0 Z " fill="#3F8F6A" transform="translate(296,75)"/>
<path d="M0 0 C-0.87011719 0.41958984 -0.87011719 0.41958984 -1.7578125 0.84765625 C-6.73810217 3.40354748 -10.27760215 5.91432793 -13.7109375 10.3515625 C-15.03114324 12.0398256 -16.45913524 13.51320067 -18 15 C-16.09051392 8.15767489 -12.73593183 4.1181049 -7 0 C-3.86650268 -1.04449911 -3.01031744 -0.93423645 0 0 Z " fill="#BAC461" transform="translate(245,162)"/>
<path d="M0 0 C0.66 0 1.32 0 2 0 C1.00178896 4.87424327 -0.12775477 9.3817951 -2 14 C-2.37593066 15.9924325 -2.71979545 17.9918674 -3 20 C-3.33 20 -3.66 20 -4 20 C-4.58179863 12.40429561 -3.26889853 6.85884959 0 0 Z " fill="#2F8C72" transform="translate(125,155)"/>
<path d="M0 0 C1.37478516 0.01740234 1.37478516 0.01740234 2.77734375 0.03515625 C3.69644531 0.04417969 4.61554688 0.05320312 5.5625 0.0625 C6.27277344 0.07410156 6.98304688 0.08570312 7.71484375 0.09765625 C5.20862321 2.60387679 3.3946366 2.84536715 -0.03515625 3.66015625 C-1.06125 3.90894531 -2.08734375 4.15773438 -3.14453125 4.4140625 C-6.18116185 5.07502065 -9.21558571 5.61516387 -12.28515625 6.09765625 C-10.98448835 3.49632045 -9.98435603 3.45577617 -7.28515625 2.53515625 C-4.65483768 1.62863574 -2.65714229 0.11355309 0 0 Z " fill="#3B8D69" transform="translate(216.28515625,68.90234375)"/>
<path d="M0 0 C0 0.33 0 0.66 0 1 C-3.3 1.33 -6.6 1.66 -10 2 C-10 2.66 -10 3.32 -10 4 C-18.03571429 5.33928571 -18.03571429 5.33928571 -22 3 C-7.40318907 -0.44419134 -7.40318907 -0.44419134 0 0 Z " fill="#4E9C9C" transform="translate(85,0)"/>
<path d="M0 0 C0.33 0.66 0.66 1.32 1 2 C-1.06684636 7.5115903 -1.06684636 7.5115903 -4.25390625 9.1796875 C-7.25711835 10.07680634 -9.68621588 10.20033215 -12.8125 10.125 C-14.27623047 10.09792969 -14.27623047 10.09792969 -15.76953125 10.0703125 C-16.50558594 10.04710937 -17.24164063 10.02390625 -18 10 C-18 9.34 -18 8.68 -18 8 C-17.00419922 8.08701172 -17.00419922 8.08701172 -15.98828125 8.17578125 C-10.07908355 8.55017315 -10.07908355 8.55017315 -5.0625 5.6875 C-4.381875 4.800625 -3.70125 3.91375 -3 3 C-2 2 -1 1 0 0 Z " fill="#4B9567" transform="translate(262,423)"/>
<path d="M0 0 C0.99642211 1.97961738 1.98176978 3.96147142 2.9296875 5.96484375 C4.89733079 10.07087624 6.97692729 13.54505976 10 17 C5.78958595 16.13877894 4.26725065 15.35164559 1.625 11.875 C-0.42817359 7.84501052 -0.31256893 4.45410725 0 0 Z " fill="#C8C85A" transform="translate(223,349)"/>
<path d="M0 0 C1.45594322 4.5982667 0.61776964 8.527841 -1 13 C-3.125 15.0625 -3.125 15.0625 -5 16 C-4.48594831 11.03083364 -3.76615118 6.70973649 -2 2 C-1.34 2 -0.68 2 0 2 C0 1.34 0 0.68 0 0 Z " fill="#2B8D77" transform="translate(376,224)"/>
<path d="M0 0 C5.97689202 0.7471115 11.05821919 3.70547946 16 7 C16 7.66 16 8.32 16 9 C12.02990501 7.82701739 9.25102569 6.51692311 6 4 C5.113125 3.649375 4.22625 3.29875 3.3125 2.9375 C1 2 1 2 0 0 Z " fill="#CAC85A" transform="translate(279,111)"/>
<path d="M0 0 C1.32 0.33 2.64 0.66 4 1 C2.63016497 4.16115776 2.0109362 4.9927092 -1 7 C-4.6875 6.625 -4.6875 6.625 -8 6 C-8 5.67 -8 5.34 -8 5 C-7.05125 4.731875 -6.1025 4.46375 -5.125 4.1875 C-1.74732727 3.25013412 -1.74732727 3.25013412 0 0 Z " fill="#F2C932" transform="translate(254,424)"/>
<path d="M0 0 C4.15633047 3.54057781 6.78130023 8.06248371 9 13 C9 13.99 9 14.98 9 16 C7.68 16 6.36 16 5 16 C4.87625 14.9275 4.7525 13.855 4.625 12.75 C4.10280215 9.6168129 3.70882871 7.61350274 2 5 C1.34 4.67 0.68 4.34 0 4 C0 2.68 0 1.36 0 0 Z " fill="#499367" transform="translate(171,325)"/>
<path d="M0 0 C0.66 0 1.32 0 2 0 C2.66 3.3 3.32 6.6 4 10 C0 9 0 9 -1.75 6.5625 C-3 4 -3 4 -3 2 C-2.01 2 -1.02 2 0 2 C0 1.34 0 0.68 0 0 Z " fill="#E1C944" transform="translate(172,318)"/>
<path d="M0 0 C0.66 0 1.32 0 2 0 C0.65072455 4.53847198 -1.19159348 8.31932246 -3.625 12.375 C-4.25664062 13.43460937 -4.88828125 14.49421875 -5.5390625 15.5859375 C-6.02117187 16.38257813 -6.50328125 17.17921875 -7 18 C-8.24546405 15.50907189 -7.7767578 14.58919267 -7 12 C-6.34 12 -5.68 12 -5 12 C-4.34 9.69 -3.68 7.38 -3 5 C-2.34 5 -1.68 5 -1 5 C-0.67 3.35 -0.34 1.7 0 0 Z " fill="#C7C95C" transform="translate(347,288)"/>
<path d="M0 0 C0.33 0.66 0.66 1.32 1 2 C1.66 2 2.32 2 3 2 C1.6062718 6.43458973 -0.60582235 8.87378374 -4 12 C-4.99 11.67 -5.98 11.34 -7 11 C-6.01 10.67 -5.02 10.34 -4 10 C-4 9.34 -4 8.68 -4 8 C-3.34 8 -2.68 8 -2 8 C-1.855625 6.865625 -1.71125 5.73125 -1.5625 4.5625 C-1 1 -1 1 0 0 Z " fill="#2F8A73" transform="translate(307,229)"/>
<path d="M0 0 C0 4.34854266 -2.28219414 5.9990114 -5.109375 9.125 C-7.21504905 11.21327178 -9.33045005 12.70567275 -12 14 C-11.67 12.35 -11.34 10.7 -11 9 C-10.01 8.67 -9.02 8.34 -8 8 C-7.67 7.34 -7.34 6.68 -7 6 C-6.34 5.690625 -5.68 5.38125 -5 5.0625 C-2.65391779 4.1108154 -2.65391779 4.1108154 -2 1 C-1.34 0.67 -0.68 0.34 0 0 Z " fill="#C2C75B" transform="translate(270,196)"/>
<path d="M0 0 C4.09480199 3.74381897 7.7448683 7.8668907 10 13 C9.67 13.99 9.34 14.98 9 16 C9 15.34 9 14.68 9 14 C8.34 14 7.68 14 7 14 C7 13.34 7 12.68 7 12 C6.34 12 5.68 12 5 12 C5 11.01 5 10.02 5 9 C4.34 9 3.68 9 3 9 C2 6 1 3 0 0 Z " fill="#C2C55C" transform="translate(354,120)"/>
<path d="M0 0 C4.56048012 3.61251516 8.01665146 6.98797445 11 12 C10.67 12.66 10.34 13.32 10 14 C7.0625 12.3125 7.0625 12.3125 4 10 C3.3125 7.4375 3.3125 7.4375 3 5 C1.50014391 3.33289654 1.50014391 3.33289654 0 2 C0 1.34 0 0.68 0 0 Z " fill="#A6CBCB" transform="translate(476,27)"/>
<path d="M0 0 C0.66 0 1.32 0 2 0 C0.56691865 3.95906817 -1.33141949 7.28718181 -3.625 10.8125 C-4.57246094 12.27623047 -4.57246094 12.27623047 -5.5390625 13.76953125 C-6.02117187 14.50558594 -6.50328125 15.24164063 -7 16 C-7.33 14.68 -7.66 13.36 -8 12 C-7.34 11.67 -6.68 11.34 -6 11 C-5.24885463 9.26909979 -4.50096833 7.53646772 -3.7890625 5.7890625 C-2.80827177 3.56528946 -1.64515906 1.78821637 0 0 Z " fill="#C2CA5C" transform="translate(329,320)"/>
<path d="M0 0 C3.93673644 1.31224548 6.22719294 2.91910327 9 6 C8.67 6.66 8.34 7.32 8 8 C7.13375 7.4740625 7.13375 7.4740625 6.25 6.9375 C3.64198224 5.85082593 2.60582371 6.06934867 0 7 C0 4.69 0 2.38 0 0 Z " fill="#E3CB46" transform="translate(262,165)"/>
<path d="M0 0 C0.66 0.33 1.32 0.66 2 1 C1.73445312 1.64066406 1.46890625 2.28132812 1.1953125 2.94140625 C-0.83545498 7.9145631 -2.64392834 12.80172531 -4 18 C-4.33 18 -4.66 18 -5 18 C-5 15.03 -5 12.06 -5 9 C-4.34 9 -3.68 9 -3 9 C-3.061875 8.2575 -3.12375 7.515 -3.1875 6.75 C-2.96905704 3.54616994 -2.09749995 2.35968744 0 0 Z " fill="#CFCA59" transform="translate(178,151)"/>
<path d="M0 0 C0 3.25811062 -0.5522078 5.10441559 -2 8 C-2.99 8.33 -3.98 8.66 -5 9 C-5 9.99 -5 10.98 -5 12 C-5.66 12 -6.32 12 -7 12 C-7.33 12.99 -7.66 13.98 -8 15 C-8.33 14.34 -8.66 13.68 -9 13 C-7.63671875 10.46875 -7.63671875 10.46875 -5.6875 7.5 C-5.05199219 6.5203125 -4.41648438 5.540625 -3.76171875 4.53125 C-2 2 -2 2 0 0 Z " fill="#499163" transform="translate(189,136)"/>
<path d="M0 0 C0.66 0.33 1.32 0.66 2 1 C-2.39042858 4.42453429 -5.2902045 6.58221009 -11 7 C-11.33 6.34 -11.66 5.68 -12 5 C-10.68 5 -9.36 5 -8 5 C-8 4.34 -8 3.68 -8 3 C-5.34771188 1.92474806 -2.71631546 0.90543849 0 0 Z " fill="#8ABFBC" transform="translate(460,481)"/>
<path d="M0 0 C0.66 0 1.32 0 2 0 C1.52412884 6.02770138 -1.19722957 10.76678289 -4 16 C-5.35304209 11.94087374 -4.15216503 10.22850409 -2.5625 6.3125 C-2.08941406 5.13300781 -1.61632812 3.95351563 -1.12890625 2.73828125 C-0.75636719 1.83464844 -0.38382812 0.93101562 0 0 Z " fill="#C5C85A" transform="translate(356,268)"/>
<path d="M0 0 C0.33 1.32 0.66 2.64 1 4 C0.2575 4.28875 -0.485 4.5775 -1.25 4.875 C-3.56739797 5.82302644 -5.77917115 6.84845911 -8 8 C-8 5 -8 5 -5.6875 2.3125 C-3 0 -3 0 0 0 Z " fill="#FBC433" transform="translate(154,121)"/>
<path d="M0 0 C0.66 0.33 1.32 0.66 2 1 C0.92333797 2.7541123 -0.16163339 4.50312587 -1.25 6.25 C-2.15492188 7.71179688 -2.15492188 7.71179688 -3.078125 9.203125 C-4.86054442 11.79705245 -6.70101628 13.86377619 -9 16 C-8.37695259 11.92546771 -6.23467379 9.10460299 -3.9375 5.75 C-3.20402344 4.67234375 -2.47054688 3.5946875 -1.71484375 2.484375 C-1.14894531 1.66453125 -0.58304687 0.8446875 0 0 Z " fill="#C9CB5D" transform="translate(287,384)"/>
<path d="M0 0 C1.0528418 0.01353516 1.0528418 0.01353516 2.12695312 0.02734375 C3.85561525 0.05086296 5.58410145 0.08673287 7.3125 0.125 C7.3125 0.455 7.3125 0.785 7.3125 1.125 C5.83136719 1.16367187 5.83136719 1.16367187 4.3203125 1.203125 C3.03898438 1.25984375 1.75765625 1.3165625 0.4375 1.375 C-0.83867187 1.42140625 -2.11484375 1.4678125 -3.4296875 1.515625 C-6.74944368 1.75721082 -6.74944368 1.75721082 -8.1328125 4.046875 C-8.77346291 6.08857833 -8.77346291 6.08857833 -8.6875 8.125 C-9.6775 7.795 -10.6675 7.465 -11.6875 7.125 C-11.375 4.75 -11.375 4.75 -10.6875 2.125 C-7.00662647 -0.32891569 -4.24394412 -0.10302759 0 0 Z " fill="#248F83" transform="translate(248.6875,319.875)"/>
<path d="M0 0 C5.18429003 4.78549849 5.18429003 4.78549849 6 9 C7.48800372 11.2072358 7.48800372 11.2072358 9 13 C4.77565886 11.43542921 2.55473302 8.61920511 0 5 C-0.3125 2.125 -0.3125 2.125 0 0 Z " fill="#408D69" transform="translate(176,195)"/>
<path d="M0 0 C3.17538332 0.34021964 4.02276865 1.02466604 6.25 3.4375 C8 6 8 6 8 8 C8.66 8 9.32 8 10 8 C9.67 9.32 9.34 10.64 9 12 C7.49707257 10.18992669 5.99772829 8.37687764 4.5 6.5625 C3.6646875 5.55316406 2.829375 4.54382813 1.96875 3.50390625 C0 1 0 1 0 0 Z " fill="#398E6D" transform="translate(348,111)"/>
<path d="M0 0 C0.7940625 -0.01417969 1.588125 -0.02835937 2.40625 -0.04296875 C4.5 0.1875 4.5 0.1875 6.5 2.1875 C-1.42 2.6825 -1.42 2.6825 -9.5 3.1875 C-5.91090147 0.79476765 -4.23686522 0.03439014 0 0 Z " fill="#34896C" transform="translate(233.5,65.8125)"/>
<path d="M0 0 C3.08089673 2.77280706 4.68775452 5.06326356 6 9 C4.02 9.33 2.04 9.66 0 10 C0 6.7 0 3.4 0 0 Z " fill="#409072" transform="translate(196,364)"/>
<path d="M0 0 C0.33 0 0.66 0 1 0 C1.57374185 6.88490225 0.4753869 11.02667877 -3 17 C-4.56393356 13.02623171 -3.36145292 10.18622097 -2.0625 6.25 C-1.68222656 5.07953125 -1.30195312 3.9090625 -0.91015625 2.703125 C-0.60980469 1.81109375 -0.30945313 0.9190625 0 0 Z " fill="#C1C75F" transform="translate(128,151)"/>
<path d="M0 0 C3.465 1.485 3.465 1.485 7 3 C7 3.99 7 4.98 7 6 C7.61875 6.28875 8.2375 6.5775 8.875 6.875 C11 8 11 8 13 10 C10.6875 10.3125 10.6875 10.3125 8 10 C6.94228261 8.36935236 5.94726954 6.69719127 5 5 C3.35394174 3.96642853 1.69036558 2.95939668 0 2 C0 1.34 0 0.68 0 0 Z " fill="#DACA4B" transform="translate(310,82)"/>
<path d="M0 0 C0.86625 0.495 0.86625 0.495 1.75 1 C4.19883862 2.27075898 4.19883862 2.27075898 8 2 C8.99 3.98 9.98 5.96 11 8 C6.40378078 6.5129879 3.53027653 4.20187872 0 1 C0 0.67 0 0.34 0 0 Z " fill="#A0CCC9" transform="translate(36,479)"/>
<path d="M0 0 C3 1 3 1 4 2.875 C4.33 3.57625 4.66 4.2775 5 5 C5.495 5.45375 5.99 5.9075 6.5 6.375 C8.59019379 8.6393766 9.1554382 11.07651684 10 14 C6.07511907 10.29939798 2.97784457 6.5093075 0 2 C0 1.34 0 0.68 0 0 Z " fill="#C7CD5F" transform="translate(215,390)"/>
<path d="M0 0 C2.9555377 2.75170751 5.11563315 5.41970299 7 9 C7 9.66 7 10.32 7 11 C6.01 10.67 5.02 10.34 4 10 C4 9.01 4 8.02 4 7 C2.68 6.67 1.36 6.34 0 6 C0 4.02 0 2.04 0 0 Z " fill="#40906C" transform="translate(202,373)"/>
<path d="M0 0 C3.9945793 2.05127045 6.10267152 3.88912162 8 8 C7.67 8.66 7.34 9.32 7 10 C2.57320993 8.52440331 2.08567304 6.09942632 0 2 C0 1.34 0 0.68 0 0 Z " fill="#459269" transform="translate(267,325)"/>
<path d="M0 0 C3.05001831 3.66002197 7 9.07851471 7 14 C6.34 14 5.68 14 5 14 C4.15675328 12.421924 3.32576082 10.8372958 2.5 9.25 C2.0359375 8.36828125 1.571875 7.4865625 1.09375 6.578125 C0 4 0 4 0 0 Z " fill="#418E63" transform="translate(145,278)"/>
<path d="M0 0 C1.53608118 4.64975924 0.02105433 7.73041337 -2 12 C-3.6875 14.5 -3.6875 14.5 -5 16 C-4.39363767 10.23955788 -2.24341721 5.27985631 0 0 Z " fill="#4D9161" transform="translate(232,242)"/>
<path d="M0 0 C0.99 0 1.98 0 3 0 C3 0.66 3 1.32 3 2 C3.66 2 4.32 2 5 2 C5 2.66 5 3.32 5 4 C5.99 4.33 6.98 4.66 8 5 C8.33 6.65 8.66 8.3 9 10 C8.01 9.34 7.02 8.68 6 8 C6 7.34 6 6.68 6 6 C5.34 6 4.68 6 4 6 C2.04783565 4.04783565 1.15173355 2.46800047 0 0 Z " fill="#E2C943" transform="translate(358,132)"/>
<path d="M0 0 C-3.86730177 2.57820118 -7.50652062 3.85620525 -12 5 C-13.2065625 5.309375 -13.2065625 5.309375 -14.4375 5.625 C-14.953125 5.74875 -15.46875 5.8725 -16 6 C-12.04597764 1.76354747 -6.04641099 -3.02320549 0 0 Z " fill="#ABD0CF" transform="translate(57,7)"/>
<path d="M0 0 C0.66 0.33 1.32 0.66 2 1 C-4.66098081 7.96375267 -4.66098081 7.96375267 -8 9 C-8.99 8.67 -9.98 8.34 -11 8 C-7.375 5 -7.375 5 -4 5 C-4 4.01 -4 3.02 -4 2 C-2.125 0.9375 -2.125 0.9375 0 0 Z " fill="#3F8C61" transform="translate(269,361)"/>
<path d="M0 0 C2.95749791 3.46741134 5.07848152 6.86873527 7 11 C4 11 4 11 2.375 10 C0.21764945 6.86203557 0.30865344 3.76557192 0 0 Z " fill="#CFC856" transform="translate(224,294)"/>
<path d="M0 0 C0 0.66 0 1.32 0 2 C-4.99296295 4.9445679 -9.33557626 5.63495936 -15 6 C-14.67 5.34 -14.34 4.68 -14 4 C-11.69 4 -9.38 4 -7 4 C-7 3.34 -7 2.68 -7 2 C-4.35261084 0.5393715 -3.10551666 0 0 0 Z " fill="#348A6C" transform="translate(216,205)"/>
<path d="M0 0 C-1.59910868 1.00806851 -3.20448262 2.00620385 -4.8125 3 C-6.15248047 3.8353125 -6.15248047 3.8353125 -7.51953125 4.6875 C-10 6 -10 6 -13 6 C-10.69847489 2.50168184 -9.35349756 1.13408528 -5.375 -0.375 C-2 -1 -2 -1 0 0 Z " fill="#4C9365" transform="translate(184,86)"/>
<path d="M0 0 C0.66 1.32 1.32 2.64 2 4 C0.71034824 5.37562854 -0.62689293 6.70766393 -2 8 C-2.66 8 -3.32 8 -4 8 C-3.50168276 4.31245243 -2.89932357 2.39509338 0 0 Z " fill="#268D83" transform="translate(292,383)"/>
<path d="M0 0 C0.99 0 1.98 0 3 0 C2.34 2.31 1.68 4.62 1 7 C0.34 7 -0.32 7 -1 7 C-1.33 8.65 -1.66 10.3 -2 12 C-3.43088528 9.13822943 -2.59991697 7.06624227 -2 4 C-1.34 4 -0.68 4 0 4 C0 2.68 0 1.36 0 0 Z " fill="#D6CA53" transform="translate(361,256)"/>
<path d="M0 0 C2.31 0.33 4.62 0.66 7 1 C4.47519307 3.52480693 2.86176966 3.55738633 -0.625 4.125 C-1.62789062 4.29257813 -2.63078125 4.46015625 -3.6640625 4.6328125 C-4.43492187 4.75398438 -5.20578125 4.87515625 -6 5 C-4 3 -4 3 -1 2 C-0.67 1.34 -0.34 0.68 0 0 Z " fill="#EBCB3E" transform="translate(219,108)"/>
<path d="M0 0 C0.66 0.33 1.32 0.66 2 1 C-4.89715536 5.23632385 -4.89715536 5.23632385 -9.5 4.25 C-10.325 3.8375 -11.15 3.425 -12 3 C-12 2.67 -12 2.34 -12 2 C-10.95199219 1.90912109 -10.95199219 1.90912109 -9.8828125 1.81640625 C-8.97273437 1.73261719 -8.06265625 1.64882813 -7.125 1.5625 C-6.22007812 1.48128906 -5.31515625 1.40007812 -4.3828125 1.31640625 C-1.98889139 1.13010715 -1.98889139 1.13010715 0 0 Z " fill="#248D7B" transform="translate(257,431)"/>
<path d="M0 0 C2.9297008 2.82506863 5.50174717 5.78796065 8 9 C7.67 9.66 7.34 10.32 7 11 C4.66666667 8.66666667 2.33333333 6.33333333 0 4 C0 2.68 0 1.36 0 0 Z " fill="#4D9564" transform="translate(226,407)"/>
<path d="M0 0 C2.64 1.98 5.28 3.96 8 6 C7.01 6.99 6.02 7.98 5 9 C4.34 9 3.68 9 3 9 C3 7.35 3 5.7 3 4 C2.01 3.67 1.02 3.34 0 3 C0 2.01 0 1.02 0 0 Z " fill="#F1C730" transform="translate(335,101)"/>
<path d="M0 0 C0 3 0 3 -2.375 5.6875 C-5 8 -5 8 -7 8 C-6.8125 5.625 -6.8125 5.625 -6 3 C-3.5 1.75 -3.5 1.75 -1 1 C-0.67 0.67 -0.34 0.34 0 0 Z " fill="#2D9077" transform="translate(235,324)"/>
<path d="M0 0 C0.68359375 1.703125 0.68359375 1.703125 1 4 C-0.21484375 6.359375 -0.21484375 6.359375 -1.9375 8.75 C-2.50339844 9.54921875 -3.06929688 10.3484375 -3.65234375 11.171875 C-4.09707031 11.77515625 -4.54179687 12.3784375 -5 13 C-5 10 -5 10 -4 7 C-3.34 7 -2.68 7 -2 7 C-1.855625 6.21625 -1.71125 5.4325 -1.5625 4.625 C-1 2 -1 2 0 0 Z " fill="#408B63" transform="translate(275,290)"/>
<path d="M0 0 C3.33773709 3.64116773 3.97864902 7.28607242 5 12 C4.01 12 3.02 12 2 12 C0.70756464 7.8803623 -0.26252625 4.33168317 0 0 Z " fill="#479367" transform="translate(135,255)"/>
<path d="M0 0 C0.99 0.33 1.98 0.66 3 1 C1.12050295 4.57104439 -0.17053157 6.54744301 -4 8 C-1.125 1.125 -1.125 1.125 0 0 Z " fill="#2F8E76" transform="translate(192,132)"/>
<path d="M0 0 C0.66 0 1.32 0 2 0 C0.79157144 4.43090471 -0.51668565 6.98112756 -4 10 C-2.25 2.25 -2.25 2.25 0 0 Z " fill="#3D8B62" transform="translate(142,120)"/>
<path d="M0 0 C1.98 0 3.96 0 6 0 C6 0.99 6 1.98 6 3 C5.34 3 4.68 3 4 3 C4.33 4.32 4.66 5.64 5 7 C4.34 6.67 3.68 6.34 3 6 C3 5.34 3 4.68 3 4 C2.34 4 1.68 4 1 4 C0.67 2.68 0.34 1.36 0 0 Z " fill="#F2C834" transform="translate(224,400)"/>
<path d="M0 0 C0.33 0 0.66 0 1 0 C0.67 4.95 0.34 9.9 0 15 C-0.33 15 -0.66 15 -1 15 C-2.51708428 4.44191344 -2.51708428 4.44191344 0 0 Z " fill="#EFC835" transform="translate(222,265)"/>
<path d="M0 0 C0.66 0.99 1.32 1.98 2 3 C2.99 3.33 3.98 3.66 5 4 C5.33 5.98 5.66 7.96 6 10 C3.03595495 7.19195732 0.55500981 4.81684226 -1 1 C-0.67 0.67 -0.34 0.34 0 0 Z " fill="#378F71" transform="translate(342,101)"/>
<path d="M0 0 C3.12290635 0.48578543 5.99580359 0.9986012 9 2 C8.67 3.32 8.34 4.64 8 6 C6.66402348 5.19185349 5.331275 4.37836819 4 3.5625 C3.2575 3.11003906 2.515 2.65757813 1.75 2.19140625 C1.1725 1.79824219 0.595 1.40507813 0 1 C0 0.67 0 0.34 0 0 Z " fill="#438F6A" transform="translate(315,84)"/>
<path d="M0 0 C-4.46726453 3.31442207 -8.62007164 3.66009167 -14 4 C-4.81927711 -2.12048193 -4.81927711 -2.12048193 0 0 Z " fill="#BFC75B" transform="translate(208,76)"/>
<path d="M0 0 C0.75 1.75 0.75 1.75 1 4 C-1.31787009 7.00464642 -3.2273236 8.46104623 -7 9 C-7 8.34 -7 7.68 -7 7 C-5.824375 6.6596875 -5.824375 6.6596875 -4.625 6.3125 C-1.78125 5.21875 -1.78125 5.21875 -0.6875 2.375 C-0.460625 1.59125 -0.23375 0.8075 0 0 Z " fill="#2A8D86" transform="translate(324,336)"/>
<path d="M0 0 C1 3 1 3 0.3125 5 C-1.17477001 7.26631621 -2.75769234 8.50512823 -5 10 C-3.84414715 6.08788267 -2.64465038 3.1254959 0 0 Z " fill="#46966B" transform="translate(330,322)"/>
<path d="M0 0 C2.4375 0.75 2.4375 0.75 5 2 C5.625 4.0625 5.625 4.0625 6 6 C6.99 6.33 7.98 6.66 9 7 C8.01 7.495 8.01 7.495 7 8 C1.125 3.375 1.125 3.375 0 0 Z " fill="#4C9061" transform="translate(228,300)"/>
<path d="M0 0 C0.99 0.33 1.98 0.66 3 1 C0.36 3.64 -2.28 6.28 -5 9 C-5.66 8.67 -6.32 8.34 -7 8 C-4.69 5.36 -2.38 2.72 0 0 Z " fill="#C5C75F" transform="translate(159,103)"/>
<path d="M0 0 C0.33 0.66 0.66 1.32 1 2 C1.66 2.33 2.32 2.66 3 3 C3.625 5.0625 3.625 5.0625 4 7 C-0.875 4.375 -0.875 4.375 -2 1 C-1.34 0.67 -0.68 0.34 0 0 Z " fill="#328D8C" transform="translate(35,473)"/>
<path d="M0 0 C1.24546405 2.49092811 0.7767578 3.41080733 0 6 C-0.66 6 -1.32 6 -2 6 C-2.33 7.65 -2.66 9.3 -3 11 C-4.3968009 6.80959731 -2.86445675 4.87233324 -1 1 C-0.67 0.67 -0.34 0.34 0 0 Z " fill="#BCC45B" transform="translate(370,238)"/>
<path d="M0 0 C-1.31224548 3.93673644 -2.91910327 6.22719294 -6 9 C-6.25 6.75 -6.25 6.75 -6 4 C-2.75675676 0 -2.75675676 0 0 0 Z " fill="#C5C759" transform="translate(239,231)"/>
<path d="M0 0 C3 2 3 2 3.51171875 4.1640625 C3.56972656 4.97617188 3.62773437 5.78828125 3.6875 6.625 C3.75324219 7.44226563 3.81898438 8.25953125 3.88671875 9.1015625 C3.92410156 9.72804687 3.96148437 10.35453125 4 11 C0.85041169 7.57653445 0.43820891 4.55737263 0 0 Z " fill="#EACA3F" transform="translate(125,219)"/>
<path d="M0 0 C0.66 0 1.32 0 2 0 C2 0.66 2 1.32 2 2 C2.66 2 3.32 2 4 2 C4 2.66 4 3.32 4 4 C5.32 4.33 6.64 4.66 8 5 C7.67 6.32 7.34 7.64 7 9 C7 8.01 7 7.02 7 6 C6.030625 5.7525 5.06125 5.505 4.0625 5.25 C3.051875 4.8375 2.04125 4.425 1 4 C0.125 1.875 0.125 1.875 0 0 Z " fill="#E4CC43" transform="translate(307,129)"/>
<path d="M0 0 C2 2 2 2 2 5 C1.34 5 0.68 5 0 5 C0 5.66 0 6.32 0 7 C-0.99 7 -1.98 7 -3 7 C-1.125 1.125 -1.125 1.125 0 0 Z " fill="#C8C450" transform="translate(145,119)"/>
<path d="M0 0 C0.99 0.33 1.98 0.66 3 1 C1.02 3.31 -0.96 5.62 -3 8 C-3.33 7.01 -3.66 6.02 -4 5 C-3.34 5 -2.68 5 -2 5 C-2 4.01 -2 3.02 -2 2 C-1.34 2 -0.68 2 0 2 C0 1.34 0 0.68 0 0 Z " fill="#3F8D6C" transform="translate(148,112)"/>
<path d="M0 0 C2.74277578 3.19990508 4.6302836 6.00499382 6 10 C5.01 9.67 4.02 9.34 3 9 C3 8.01 3 7.02 3 6 C2.01 5.67 1.02 5.34 0 5 C0 3.35 0 1.7 0 0 Z " fill="#468E60" transform="translate(165,315)"/>
<path d="M0 0 C-5.14285714 5.57142857 -5.14285714 5.57142857 -9 6 C-4.625 -2.3125 -4.625 -2.3125 0 0 Z " fill="#389071" transform="translate(214,117)"/>
<path d="M0 0 C0.66 0 1.32 0 2 0 C1.8125 1.8125 1.8125 1.8125 1 4 C-1.5625 5.75 -1.5625 5.75 -4 7 C-2.92598892 4.08482708 -2.22189824 2.22189824 0 0 Z " fill="#3C8D6A" transform="translate(298,372)"/>
<path d="M0 0 C0.33 0.99 0.66 1.98 1 3 C-0.28965176 4.37562854 -1.62689293 5.70766393 -3 7 C-3.66 7 -4.32 7 -5 7 C-5 6.01 -5 5.02 -5 4 C-2.5 1.8125 -2.5 1.8125 0 0 Z " fill="#239089" transform="translate(349,296)"/>
<path d="M0 0 C0.33 0 0.66 0 1 0 C1.36923077 5.53846154 1.36923077 5.53846154 -0.5 7.875 C-1.2425 8.431875 -1.2425 8.431875 -2 9 C-2.25 3.375 -2.25 3.375 0 0 Z " fill="#319074" transform="translate(352,283)"/>
<path d="M0 0 C0.99 0 1.98 0 3 0 C3.33 2.97 3.66 5.94 4 9 C1.18167487 7.59083743 0.97406539 5.92219617 0 3 C0 2.01 0 1.02 0 0 Z " fill="#D2CE5D" transform="translate(134,250)"/>
<path d="M0 0 C0.75 1.625 0.75 1.625 1 4 C-0.9375 7.25 -0.9375 7.25 -3 10 C-3.625 8.1875 -3.625 8.1875 -4 6 C-3.34 5.01 -2.68 4.02 -2 3 C-1.34 3 -0.68 3 0 3 C0 2.01 0 1.02 0 0 Z " fill="#258D80" transform="translate(184,145)"/>
<path d="M0 0 C1.32 1.32 2.64 2.64 4 4 C3.01 4.495 3.01 4.495 2 5 C-0.625 4.0625 -0.625 4.0625 -3 3 C-3 2.34 -3 1.68 -3 1 C-2.01 0.67 -1.02 0.34 0 0 Z " fill="#509B9A" transform="translate(65,491)"/>
<path d="M0 0 C1.4540625 0.0309375 1.4540625 0.0309375 2.9375 0.0625 C1.64784824 1.43812854 0.31060707 2.77016393 -1.0625 4.0625 C-1.7225 4.0625 -2.3825 4.0625 -3.0625 4.0625 C-3.3925 3.0725 -3.7225 2.0825 -4.0625 1.0625 C-3.0625 0.0625 -3.0625 0.0625 0 0 Z " fill="#39908D" transform="translate(460.0625,478.9375)"/>
<path d="M0 0 C0.99 0.33 1.98 0.66 3 1 C2.071875 1.3403125 2.071875 1.3403125 1.125 1.6875 C-1.61410209 3.37929835 -2.05024472 4.99244161 -3 8 C-3.33 7.01 -3.66 6.02 -4 5 C-2.0625 2.3125 -2.0625 2.3125 0 0 Z " fill="#B8C661" transform="translate(230,324)"/>
<path d="M0 0 C0.66 0 1.32 0 2 0 C0.73058503 3.91402949 -0.51167694 5.79072873 -4 8 C-3.40312566 4.65750371 -2.26396123 2.53563658 0 0 Z " fill="#D5CE57" transform="translate(329,320)"/>
<path d="M0 0 C-1.0625 1.5625 -1.0625 1.5625 -3 3 C-6.6875 2.6875 -6.6875 2.6875 -10 2 C-6.5980513 -0.09350689 -3.94727588 -0.17942163 0 0 Z " fill="#F4CA32" transform="translate(266,311)"/>
<path d="M0 0 C0.33 0 0.66 0 1 0 C1.36923077 6.52307692 1.36923077 6.52307692 -0.5 8.9375 C-0.995 9.288125 -1.49 9.63875 -2 10 C-1.125 2.25 -1.125 2.25 0 0 Z " fill="#448E61" transform="translate(373,230)"/>
<path d="M0 0 C0 3 0 3 -1.4375 4.6875 C-3 6 -3 6 -4 6 C-4 4.35 -4 2.7 -4 1 C-2.68 0.67 -1.36 0.34 0 0 Z " fill="#389072" transform="translate(221,198)"/>
<path d="M0 0 C0 0.33 0 0.66 0 1 C-4.1196377 2.29243536 -7.66831683 3.26252625 -12 3 C-8.2391768 -0.7608232 -5.0273023 -0.25136512 0 0 Z " fill="#E7CD46" transform="translate(234,70)"/>
<path d="M0 0 C3 3.75 3 3.75 3 6 C2.01 6.33 1.02 6.66 0 7 C-0.66 5.02 -1.32 3.04 -2 1 C-1.34 0.67 -0.68 0.34 0 0 Z " fill="#419592" transform="translate(490,48)"/>
<path d="M0 0 C0.33 0.66 0.66 1.32 1 2 C0.06694014 4.71435596 -0.62673377 5.78043163 -3.125 7.25 C-3.74375 7.4975 -4.3625 7.745 -5 8 C-3.8141763 4.62496331 -2.72426311 2.35277269 0 0 Z " fill="#BBD6D6" transform="translate(18,33)"/>
</svg>
